# Wavefront OBJ file
# Exported by Misfit Model 3D 1.3.8
# Sun Feb 07 15:03:18 2016

mtllib card1.mtl

# 32 Vertices
v 6.52203 0.349776 -3.646856
v 6.418915 0.349776 -3.997445
v 5.800224 0.349776 -4.411778
v 6.109569 0.349776 -4.284291
v 6.52203 0.141259 -3.646856
v 6.418915 0.141259 -3.997445
v 6.109569 0.141259 -4.284291
v 5.800224 0.141259 -4.411778
v 6.573587 0.141259 2.918728
v 6.418915 0.141259 3.269317
v 5.800224 0.141259 3.68365
v 6.109569 0.141259 3.556163
v 6.573587 0.349776 2.918728
v 6.418915 0.349776 3.269317
v 6.109569 0.349776 3.556163
v 5.800224 0.349776 3.68365
v -5.851784 0.349776 -4.411778
v -6.161129 0.349776 -4.284291
v -6.573589 0.349776 -3.646855
v -6.470474 0.349776 -3.997445
v -5.851784 0.141259 -4.411778
v -6.161129 0.141259 -4.284291
v -6.470474 0.141259 -3.997445
v -6.573589 0.141259 -3.646855
v -6.573589 0.141259 2.918728
v -6.470474 0.141259 3.269318
v -6.161129 0.141259 3.556164
v -5.851783 0.141259 3.715522
v -6.573589 0.349776 2.918728
v -6.470474 0.349776 3.269318
v -5.851783 0.349776 3.715522
v -6.161129 0.349776 3.556164

# 180 Texture Coordinates
vt 0.822266 0.429688
vt 0.808594 0.441406
vt 0.830078 0.412109
vt 0.808594 0.441406
vt 0.792969 0.449219
vt 0.830078 0.412109
vt 0.792969 0.449219
vt 0.238281 0.449219
vt 0.792969 0.060547
vt 0.792969 0.449219
vt 0.792969 0.060547
vt 0.830078 0.412109
vt 0.238281 0.449219
vt 0.220703 0.441406
vt 0.201172 0.412109
vt 0.238281 0.449219
vt 0.201172 0.412109
vt 0.201172 0.097656
vt 0.238281 0.449219
vt 0.201172 0.097656
vt 0.238281 0.060547
vt 0.238281 0.449219
vt 0.238281 0.060547
vt 0.792969 0.060547
vt 0.220703 0.441406
vt 0.208984 0.429688
vt 0.201172 0.412109
vt 0.201172 0.097656
vt 0.208984 0.080078
vt 0.220703 0.068359
vt 0.201172 0.097656
vt 0.220703 0.068359
vt 0.238281 0.060547
vt 0.792969 0.060547
vt 0.808594 0.068359
vt 0.822266 0.080078
vt 0.792969 0.060547
vt 0.822266 0.080078
vt 0.830078 0.097656
vt 0.792969 0.060547
vt 0.830078 0.097656
vt 0.830078 0.412109
vt 0.822266 0.828125
vt 0.814453 0.84375
vt 0.785156 0.865234
vt 0.822266 0.828125
vt 0.785156 0.865234
vt 0.822266 0.513672
vt 0.814453 0.84375
vt 0.800781 0.857422
vt 0.785156 0.865234
vt 0.785156 0.865234
vt 0.230469 0.865234
vt 0.230469 0.476563
vt 0.785156 0.865234
vt 0.230469 0.476563
vt 0.785156 0.476563
vt 0.785156 0.865234
vt 0.785156 0.476563
vt 0.822266 0.513672
vt 0.230469 0.865234
vt 0.212891 0.857422
vt 0.193359 0.828125
vt 0.230469 0.865234
vt 0.193359 0.828125
vt 0.230469 0.476563
vt 0.212891 0.857422
vt 0.201172 0.84375
vt 0.193359 0.828125
vt 0.193359 0.828125
vt 0.193359 0.513672
vt 0.230469 0.476563
vt 0.193359 0.513672
vt 0.201172 0.496094
vt 0.212891 0.482422
vt 0.193359 0.513672
vt 0.212891 0.482422
vt 0.230469 0.476563
vt 0.785156 0.476563
vt 0.800781 0.482422
vt 0.822266 0.513672
vt 0.800781 0.482422
vt 0.814453 0.496094
vt 0.822266 0.513672
vt 0.664063 0.955078
vt 0.646484 0.955078
vt 0.646484 0.945313
vt 0.332031 0.955078
vt 0.332031 0.945313
vt 0.646484 0.945313
vt 0.3125 0.945313
vt 0.332031 0.945313
vt 0.332031 0.955078
vt 0.791016 0.875
vt 0.808594 0.875
vt 0.808594 0.886719
vt 0.771484 0.875
vt 0.791016 0.875
vt 0.791016 0.886719
vt 0.667969 0.919922
vt 0.6875 0.919922
vt 0.6875 0.929688
vt 0.349609 0.929688
vt 0.349609 0.919922
vt 0.667969 0.919922
vt 0.808594 0.90625
vt 0.791016 0.90625
vt 0.791016 0.896484
vt 0.791016 0.90625
vt 0.773438 0.90625
vt 0.773438 0.896484
vt 0.21875 0.90625
vt 0.21875 0.896484
vt 0.773438 0.896484
vt 0.349609 0.929688
vt 0.332031 0.929688
vt 0.332031 0.919922
vt 0.332031 0.929688
vt 0.314453 0.929688
vt 0.314453 0.919922
vt 0.199219 0.875
vt 0.21875 0.875
vt 0.21875 0.884766
vt 0.771484 0.875
vt 0.771484 0.886719
vt 0.21875 0.884766
vt 0.21875 0.90625
vt 0.199219 0.90625
vt 0.199219 0.896484
vt 0.681641 0.955078
vt 0.664063 0.955078
vt 0.664063 0.945313
vt 0.664063 0.945313
vt 0.664063 0.955078
vt 0.646484 0.945313
vt 0.646484 0.955078
vt 0.332031 0.955078
vt 0.646484 0.945313
vt 0.3125 0.955078
vt 0.3125 0.945313
vt 0.332031 0.955078
vt 0.791016 0.886719
vt 0.791016 0.875
vt 0.808594 0.886719
vt 0.771484 0.886719
vt 0.771484 0.875
vt 0.791016 0.886719
vt 0.667969 0.929688
vt 0.667969 0.919922
vt 0.6875 0.929688
vt 0.667969 0.929688
vt 0.349609 0.929688
vt 0.667969 0.919922
vt 0.808594 0.896484
vt 0.808594 0.90625
vt 0.791016 0.896484
vt 0.791016 0.896484
vt 0.791016 0.90625
vt 0.773438 0.896484
vt 0.773438 0.90625
vt 0.21875 0.90625
vt 0.773438 0.896484
vt 0.349609 0.919922
vt 0.349609 0.929688
vt 0.332031 0.919922
vt 0.332031 0.919922
vt 0.332031 0.929688
vt 0.314453 0.919922
vt 0.199219 0.884766
vt 0.199219 0.875
vt 0.21875 0.884766
vt 0.21875 0.875
vt 0.771484 0.875
vt 0.21875 0.884766
vt 0.21875 0.896484
vt 0.21875 0.90625
vt 0.199219 0.896484
vt 0.681641 0.945313
vt 0.681641 0.955078
vt 0.664063 0.945313

# 180 Vertex Normals
vn -0.0 1.0 0.0
vn -0.0 1.0 0.0
vn -0.0 1.0 0.0
vn -0.0 1.0 0.0
vn -0.0 1.0 0.0
vn -0.0 1.0 0.0
vn -0.0 1.0 0.0
vn -0.0 1.0 0.0
vn -0.0 1.0 -0.0
vn -0.0 1.0 0.0
vn -0.0 1.0 -0.0
vn -0.0 1.0 0.0
vn -0.0 1.0 0.0
vn -0.0 1.0 0.0
vn -0.0 1.0 0.0
vn -0.0 1.0 0.0
vn -0.0 1.0 0.0
vn -0.0 1.0 -0.0
vn -0.0 1.0 0.0
vn -0.0 1.0 -0.0
vn -0.0 1.0 -0.0
vn -0.0 1.0 0.0
vn -0.0 1.0 -0.0
vn -0.0 1.0 -0.0
vn -0.0 1.0 0.0
vn -0.0 1.0 -0.0
vn -0.0 1.0 0.0
vn -0.0 1.0 -0.0
vn -0.0 1.0 0.0
vn -0.0 1.0 -0.0
vn -0.0 1.0 -0.0
vn -0.0 1.0 -0.0
vn -0.0 1.0 -0.0
vn -0.0 1.0 -0.0
vn -0.0 1.0 -0.0
vn -0.0 1.0 -0.0
vn -0.0 1.0 -0.0
vn -0.0 1.0 -0.0
vn -0.0 1.0 -0.0
vn -0.0 1.0 -0.0
vn -0.0 1.0 -0.0
vn -0.0 1.0 0.0
vn 0.0 -1.0 0.0
vn 0.0 -1.0 0.0
vn 0.0 -1.0 0.0
vn 0.0 -1.0 0.0
vn 0.0 -1.0 0.0
vn 0.0 -1.0 -0.0
vn 0.0 -1.0 0.0
vn 0.0 -1.0 0.0
vn 0.0 -1.0 0.0
vn 0.0 -1.0 0.0
vn 0.0 -1.0 0.0
vn 0.0 -1.0 -0.0
vn 0.0 -1.0 0.0
vn 0.0 -1.0 -0.0
vn 0.0 -1.0 -0.0
vn 0.0 -1.0 0.0
vn 0.0 -1.0 -0.0
vn 0.0 -1.0 -0.0
vn 0.0 -1.0 0.0
vn 0.0 -1.0 0.0
vn 0.0 -1.0 0.0
vn 0.0 -1.0 0.0
vn 0.0 -1.0 0.0
vn 0.0 -1.0 -0.0
vn 0.0 -1.0 0.0
vn 0.0 -1.0 -0.0
vn 0.0 -1.0 0.0
vn 0.0 -1.0 0.0
vn 0.0 -1.0 -0.0
vn 0.0 -1.0 -0.0
vn 0.0 -1.0 -0.0
vn 0.0 -1.0 0.0
vn 0.0 -1.0 -0.0
vn 0.0 -1.0 -0.0
vn 0.0 -1.0 -0.0
vn 0.0 -1.0 -0.0
vn 0.0 -1.0 -0.0
vn 0.0 -1.0 -0.0
vn 0.0 -1.0 -0.0
vn 0.0 -1.0 -0.0
vn 0.0 -1.0 -0.0
vn 0.0 -1.0 -0.0
vn -0.894665 -0.0 -0.446737
vn -0.989789 0.0 -0.142539
vn -0.989789 0.0 -0.142539
vn -0.989789 -0.0 0.142539
vn -0.989789 -0.0 0.142539
vn -0.989789 0.0 -0.142539
vn -0.894665 0.0 0.446738
vn -0.989789 -0.0 0.142539
vn -0.989789 -0.0 0.142539
vn -0.610954 0.0 0.791666
vn -0.894665 0.0 0.446738
vn -0.798464 0.0 0.602042
vn -0.234281 0.0 0.972169
vn -0.610954 0.0 0.791666
vn -0.536348 0.0 0.843997
vn 0.989222 -0.0 -0.146424
vn 0.798464 -0.0 -0.602042
vn 0.894665 -0.0 -0.446737
vn 0.9793 0.0 0.202413
vn 0.9793 0.0 0.202413
vn 0.989222 -0.0 -0.146424
vn 0.798464 -0.0 -0.602042
vn 0.487536 -0.0 -0.873103
vn 0.588596 -0.0 -0.808427
vn 0.487536 -0.0 -0.873103
vn 0.194212 0.0 -0.98096
vn 0.194212 0.0 -0.98096
vn -0.194213 0.0 -0.980959
vn -0.194213 0.0 -0.980959
vn 0.194212 0.0 -0.98096
vn 0.9793 0.0 0.202413
vn 0.772459 0.0 0.635064
vn 0.852252 0.0 0.523131
vn 0.772459 0.0 0.635064
vn 0.487537 -0.0 0.873102
vn 0.588597 0.0 0.808427
vn 0.487537 -0.0 0.873102
vn 0.195554 -0.000001 0.980693
vn 0.195555 -0.0 0.980693
vn -0.234281 0.0 0.972169
vn -0.234281 0.0 0.972169
vn 0.195555 -0.0 0.980693
vn -0.194213 0.0 -0.980959
vn -0.588597 -0.0 -0.808427
vn -0.487537 0.0 -0.873102
vn -0.588597 -0.0 -0.808427
vn -0.894665 -0.0 -0.446737
vn -0.798464 -0.0 -0.602042
vn -0.798464 -0.0 -0.602042
vn -0.894665 -0.0 -0.446737
vn -0.989789 0.0 -0.142539
vn -0.989789 0.0 -0.142539
vn -0.989789 -0.0 0.142539
vn -0.989789 0.0 -0.142539
vn -0.798464 0.0 0.602042
vn -0.894665 0.0 0.446738
vn -0.989789 -0.0 0.142539
vn -0.536348 0.0 0.843997
vn -0.610954 0.0 0.791666
vn -0.798464 0.0 0.602042
vn -0.234281 0.0 0.972169
vn -0.234281 0.0 0.972169
vn -0.536348 0.0 0.843997
vn 0.989222 0.0 -0.146424
vn 0.989222 -0.0 -0.146424
vn 0.894665 -0.0 -0.446737
vn 0.989222 0.0 -0.146424
vn 0.9793 0.0 0.202413
vn 0.989222 -0.0 -0.146424
vn 0.894665 -0.0 -0.446737
vn 0.798464 -0.0 -0.602042
vn 0.588596 -0.0 -0.808427
vn 0.588596 -0.0 -0.808427
vn 0.487536 -0.0 -0.873103
vn 0.194212 0.0 -0.98096
vn 0.194212 0.0 -0.98096
vn -0.194213 0.0 -0.980959
vn 0.194212 0.0 -0.98096
vn 0.9793 0.0 0.202413
vn 0.9793 0.0 0.202413
vn 0.852252 0.0 0.523131
vn 0.852252 0.0 0.523131
vn 0.772459 0.0 0.635064
vn 0.588597 0.0 0.808427
vn 0.588597 0.0 0.808427
vn 0.487537 -0.0 0.873102
vn 0.195555 -0.0 0.980693
vn 0.195554 -0.000001 0.980693
vn -0.234281 0.0 0.972169
vn 0.195555 -0.0 0.980693
vn -0.194213 0.0 -0.980959
vn -0.194213 0.0 -0.980959
vn -0.487537 0.0 -0.873102
vn -0.487537 0.0 -0.873102
vn -0.588597 -0.0 -0.808427
vn -0.798464 -0.0 -0.602042

# Group, 60 grouped triangles

usemtl card1.jpg
o Group
g Group

f 2/1/1 4/2/2 1/3/3
f 4/4/4 3/5/5 1/6/6
f 3/7/7 17/8/8 16/9/9
f 3/10/10 16/11/11 1/12/12
f 17/13/13 18/14/14 19/15/15
f 17/16/16 19/17/17 29/18/18
f 17/19/19 29/20/20 31/21/21
f 17/22/22 31/23/23 16/24/24
f 18/25/25 20/26/26 19/27/27
f 29/28/28 30/29/29 32/30/30
f 29/31/31 32/32/32 31/33/33
f 16/34/34 15/35/35 14/36/36
f 16/37/37 14/38/38 13/39/39
f 16/40/40 13/41/41 1/42/42
f 9/43/43 10/44/44 11/45/45
f 9/46/46 11/47/47 5/48/48
f 10/49/49 12/50/50 11/51/51
f 11/52/52 28/53/53 21/54/54
f 11/55/55 21/56/56 8/57/57
f 11/58/58 8/59/59 5/60/60
f 28/61/61 27/62/62 25/63/63
f 28/64/64 25/65/65 21/66/66
f 27/67/67 26/68/68 25/69/69
f 25/70/70 24/71/71 21/72/72
f 24/73/73 23/74/74 22/75/75
f 24/76/76 22/77/77 21/78/78
f 8/79/79 7/80/80 5/81/81
f 7/82/82 6/83/83 5/84/84
f 23/85/85 24/86/86 19/87/87
f 25/88/88 29/89/89 19/90/90
f 30/91/91 29/92/92 25/93/93
f 32/94/94 30/95/95 26/96/96
f 31/97/97 32/98/98 27/99/99
f 5/100/100 6/101/101 2/102/102
f 13/103/103 9/104/104 5/105/105
f 6/106/106 7/107/107 4/108/108
f 7/109/109 8/110/110 3/111/111
f 21/112/112 17/113/113 3/114/114
f 13/115/115 14/116/116 10/117/117
f 14/118/118 15/119/119 12/120/120
f 15/121/121 16/122/122 11/123/123
f 31/124/124 28/125/125 11/126/126
f 21/127/127 22/128/128 18/129/129
f 22/130/130 23/131/131 20/132/132
f 20/133/133 23/134/134 19/135/135
f 24/136/136 25/137/137 19/138/138
f 26/139/139 30/140/140 25/141/141
f 27/142/142 32/143/143 26/144/144
f 28/145/145 31/146/146 27/147/147
f 1/148/148 5/149/149 2/150/150
f 1/151/151 13/152/152 5/153/153
f 2/154/154 6/155/155 4/156/156
f 4/157/157 7/158/158 3/159/159
f 8/160/160 21/161/161 3/162/162
f 9/163/163 13/164/164 10/165/165
f 10/166/166 14/167/167 12/168/168
f 12/169/169 15/170/170 11/171/171
f 16/172/172 31/173/173 11/174/174
f 17/175/175 21/176/176 18/177/177
f 18/178/178 22/179/179 20/180/180
