# Exported from Wings 3D 0.99.02
mtllib lift.mtl
o cube1
#136 vertices, 100 faces
v -1.66060631 0.0000000e+0 1.97400000
v -1.97400000 0.0000000e+0 1.66060631
v -1.66060631 0.38351703 1.97400000
v -1.97400000 0.38351703 1.66060631
v 1.66060631 0.38351703 1.97400000
v 1.97400000 0.38351703 1.66060631
v 1.66060631 0.0000000e+0 1.97400000
v 1.97400000 0.0000000e+0 1.66060631
v -1.97400000 0.0000000e+0 -1.66060631
v -1.66060631 0.0000000e+0 -1.97400000
v -1.97400000 0.38351703 -1.66060631
v -1.66060631 0.38351703 -1.97400000
v 1.66060631 0.38351703 -1.97400000
v 1.97400000 0.38351703 -1.66060631
v 1.66060631 0.0000000e+0 -1.97400000
v 1.97400000 0.0000000e+0 -1.66060631
v -1.97400000 0.0000000e+0 0.23359195
v -1.97400000 0.0000000e+0 -0.23359195
v -1.97400000 0.38351703 0.23359195
v -1.97400000 0.38351703 -0.23359195
v -5.73654572 0.38351703 -0.23359195
v -5.73654572 0.0000000e+0 -0.23359195
v -5.73654572 0.0000000e+0 0.23359195
v -5.73654572 0.38351703 0.23359195
v -1.72985111 4.25436176 1.65827252
v -1.72985111 5.73129838 1.65827252
v -1.52657111 5.73129838 1.65827252
v -1.52657111 4.25436176 1.65827252
v -1.72985111 4.25436176 -1.67227967
v -1.72985111 5.73129838 -1.67227967
v -1.52657111 5.73129838 -1.67227967
v -1.52657111 4.25436176 -1.67227967
v -1.52657111 5.73129838 0.99216208
v -1.52657111 5.73129838 0.32605164
v -1.52657111 5.73129838 -0.34005880
v -1.52657111 5.73129838 -1.00616924
v -1.52657111 4.25436176 0.99216208
v -1.52657111 4.25436176 0.32605164
v -1.52657111 4.25436176 -0.34005880
v -1.52657111 4.25436176 -1.00616924
v -1.52657111 5.23898617 0.99216208
v -1.52657111 4.74667396 0.99216208
v -1.52657111 5.23898617 0.32605164
v -1.52657111 4.74667396 0.32605164
v -1.52657111 5.23898617 -0.34005880
v -1.52657111 4.74667396 -0.34005880
v -1.52657111 5.23898617 -1.00616924
v -1.52657111 4.74667396 -1.00616924
v -1.39751119 4.74667396 0.99216208
v -1.39751119 4.74667396 0.32605164
v -1.39751119 5.23898617 0.32605164
v -1.39751119 5.23898617 0.99216208
v -1.39751119 4.74667396 -0.34005880
v -1.39751119 4.74667396 -1.00616924
v -1.39751119 5.23898617 -1.00616924
v -1.39751119 5.23898617 -0.34005880
v -1.31632833 4.82785682 0.91097922
v -1.31632833 4.82785682 0.40723450
v -1.31632833 5.15780331 0.40723450
v -1.31632833 5.15780331 0.91097922
v -1.31632833 4.82785682 -0.42124165
v -1.31632833 4.82785682 -0.92498638
v -1.31632833 5.15780331 -0.92498638
v -1.31632833 5.15780331 -0.42124165
v -1.72985111 2.04590184 1.65827252
v -1.72985111 3.52283847 1.65827252
v -1.52657111 3.52283847 1.65827252
v -1.52657111 2.04590184 1.65827252
v -1.72985111 2.04590184 -1.67227967
v -1.72985111 3.52283847 -1.67227967
v -1.52657111 3.52283847 -1.67227967
v -1.52657111 2.04590184 -1.67227967
v 1.56169738 2.04590184 1.65827252
v 1.56169738 3.52283847 1.65827252
v 1.76497738 3.52283847 1.65827252
v 1.76497738 2.04590184 1.65827252
v 1.56169738 2.04590184 -1.67227967
v 1.56169738 3.52283847 -1.67227967
v 1.76497738 3.52283847 -1.67227967
v 1.76497738 2.04590184 -1.67227967
v 1.50933738 2.7253806e-2 1.72421368
v 1.50933738 7.88329966 1.72421368
v 1.81733738 7.88329966 1.72421368
v 1.81733738 2.7253806e-2 1.72421368
v 1.50933738 2.7253806e-2 1.55597033
v 1.50933738 7.88329966 1.55597033
v 1.81733738 7.88329966 1.55597033
v 1.81733738 2.7253806e-2 1.55597033
v -1.79929317 2.7253806e-2 1.72421368
v -1.79929317 7.88329966 1.72421368
v -1.49129317 7.88329966 1.72421368
v -1.49129317 2.7253806e-2 1.72421368
v -1.79929317 2.7253806e-2 1.55597033
v -1.79929317 7.88329966 1.55597033
v -1.49129317 7.88329966 1.55597033
v -1.49129317 2.7253806e-2 1.55597033
v -1.66060631 7.60921728 1.97400000
v -1.97400000 7.60921728 1.66060631
v 1.66060631 7.60921728 1.97400000
v 1.97400000 7.60921728 1.66060631
v -1.97400000 7.60921728 -1.66060631
v -1.66060631 7.60921728 -1.97400000
v 1.66060631 7.60921728 -1.97400000
v 1.97400000 7.60921728 -1.66060631
v -1.66060631 7.83997826 1.97400000
v -1.97400000 7.83997826 1.66060631
v 1.66060631 7.83997826 1.97400000
v 1.97400000 7.83997826 1.66060631
v -1.97400000 7.83997826 -1.66060631
v -1.66060631 7.83997826 -1.97400000
v 1.66060631 7.83997826 -1.97400000
v 1.97400000 7.83997826 -1.66060631
v -1.59733269 7.99273430 1.82124396
v 1.59733269 7.99273430 1.82124396
v 1.82124396 7.99273430 1.59733269
v 1.82124396 7.99273430 -1.59733269
v 1.59733269 7.99273430 -1.82124396
v -1.59733269 7.99273430 -1.82124396
v -1.82124396 7.99273430 -1.59733269
v -1.82124396 7.99273430 1.59733269
v 1.50933738 2.7253806e-2 -1.57912519
v 1.50933738 7.88329966 -1.57912519
v 1.81733738 7.88329966 -1.57912519
v 1.81733738 2.7253806e-2 -1.57912519
v 1.50933738 2.7253806e-2 -1.74736855
v 1.50933738 7.88329966 -1.74736855
v 1.81733738 7.88329966 -1.74736855
v 1.81733738 2.7253806e-2 -1.74736855
v -1.79929317 2.7253806e-2 -1.57912519
v -1.79929317 7.88329966 -1.57912519
v -1.49129317 7.88329966 -1.57912519
v -1.49129317 2.7253806e-2 -1.57912519
v -1.79929317 2.7253806e-2 -1.74736855
v -1.79929317 7.88329966 -1.74736855
v -1.49129317 7.88329966 -1.74736855
v -1.49129317 2.7253806e-2 -1.74736855
vt 1.3860810e-2 0.46597378
vt 1.3860810e-2 0.26478178
vt 1.9560074e-2 0.47456667
vt 1.9560074e-2 0.99256667
vt 2.0811320e-2 0.23007102
vt 2.1008851e-2 0.16719517
vt 2.4139320e-2 0.11064702
vt 2.4336851e-2 4.7771166e-2
vt 3.0653448e-2 0.47456667
vt 3.0653448e-2 0.99256667
vt 3.7294261e-2 0.23012280
vt 3.7491792e-2 0.16724695
vt 3.8842211e-2 0.26478178
vt 3.8842211e-2 0.46597378
vt 4.0622261e-2 0.11069880
vt 4.0819792e-2 4.7822949e-2
vt 4.1523677e-2 0.25091393
vt 4.1575460e-2 0.23443099
vt 4.1799975e-2 0.16296575
vt 4.1851758e-2 0.14648281
vt 4.4851677e-2 0.13148993
vt 4.4903460e-2 0.11500699
vt 4.5127975e-2 4.3541750e-2
vt 4.5179758e-2 2.7058809e-2
vt 5.0961884e-2 0.47456667
vt 5.0961884e-2 0.99256667
vt 5.1989827e-2 0.21980057
vt 5.2122211e-2 0.17766132
vt 5.5317827e-2 0.10037657
vt 5.5450211e-2 5.8237316e-2
vt 5.9349752e-2 0.26478178
vt 5.9349752e-2 0.46597378
vt 6.2055258e-2 0.47456667
vt 6.2055258e-2 0.99256667
vt 8.2363693e-2 0.47456667
vt 8.2363693e-2 0.99256667
vt 8.4331153e-2 0.26478178
vt 8.4331153e-2 0.46597378
vt 9.1654658e-2 0.99141111
vt 9.1654658e-2 0.47341111
vt 0.10483869 0.26478178
vt 0.10483869 0.46597378
vt 0.11196309 0.47341111
vt 0.11196309 0.99141111
vt 0.11632579 0.22000268
vt 0.11645817 0.17786343
vt 0.11763576 0.44710532
vt 0.11763576 0.46065811
vt 0.11965379 0.10057868
vt 0.11978617 5.8439434e-2
vt 0.12305647 0.99141111
vt 0.12305647 0.47341111
vt 0.12447707 0.37165517
vt 0.12447707 0.39539152
vt 0.12447707 0.41309338
vt 0.12447707 0.43682974
vt 0.12659624 0.25118119
vt 0.12664802 0.23469825
vt 0.12687254 0.16323301
vt 0.12692432 0.14675007
vt 0.12992424 0.13175719
vt 0.12997602 0.11527425
vt 0.13020054 4.3809014e-2
vt 0.13025232 2.7326074e-2
vt 0.13095621 0.23041705
vt 0.13115374 0.16754120
vt 0.13428421 0.11099305
vt 0.13448174 4.8117198e-2
vt 0.13744292 0.37165517
vt 0.13744292 0.39539152
vt 0.13744292 0.41309338
vt 0.13744292 0.43682974
vt 0.14244661 0.44710532
vt 0.14244661 0.46065811
vt 0.14336490 0.99141111
vt 0.14336490 0.47341111
vt 0.14743915 0.23046883
vt 0.14763668 0.16759298
vt 0.15076715 0.11104483
vt 0.15096468 4.8168980e-2
vt 0.15445828 0.99141111
vt 0.15445828 0.47341111
vt 0.15594541 0.42747634
vt 0.15594541 0.46348038
vt 0.16016321 0.37067303
vt 0.16016321 0.39440938
vt 0.16450828 0.99184444
vt 0.16450828 0.47384444
vt 0.16913457 0.28272324
vt 0.17159520 0.16220488
vt 0.17188969 0.14580863
vt 0.17312907 0.37067303
vt 0.17312907 0.39440938
vt 0.17327915 2.6079038e-2
vt 0.17346726 9.5887258e-3
vt 0.18481671 0.99184444
vt 0.18481671 0.47384444
vt 0.18550157 0.42747634
vt 0.18550157 0.46348038
vt 0.19591009 0.99184444
vt 0.19591009 0.47384444
vt 0.19699463 0.43605960
vt 0.19699463 0.45979595
vt 0.20996049 0.43605960
vt 0.20996049 0.45979595
vt 0.21621852 0.99184444
vt 0.21621852 0.47384444
vt 0.21775570 0.43688616
vt 0.21775570 0.46062251
vt 0.22358971 0.28391238
vt 0.22436412 0.24354019
vt 0.22518315 0.20323799
vt 0.22584414 0.16298784
vt 0.22731190 0.99184444
vt 0.22731190 0.47384444
vt 0.22756841 1.0139286e-2
vt 0.23072156 0.43688616
vt 0.23072156 0.46062251
vt 0.23606190 0.99126667
vt 0.23606190 0.47326667
vt 0.24778860 0.43590402
vt 0.24778860 0.45964037
vt 0.25637033 0.99126667
vt 0.25637033 0.47326667
vt 0.25926616 0.35244207
vt 0.25926616 0.36810806
vt 0.26075446 0.43590402
vt 0.26075446 0.45964037
vt 0.26252990 0.32681647
vt 0.26252990 0.34248246
vt 0.26746371 0.99126667
vt 0.26746371 0.47326667
vt 0.27199158 0.43368523
vt 0.27199158 0.45742159
vt 0.27842269 0.28494765
vt 0.27899217 0.24442362
vt 0.27953611 0.20387004
vt 0.28008166 0.16357831
vt 0.28168833 1.0691320e-2
vt 0.28495743 0.43368523
vt 0.28495743 0.45742159
vt 0.28777214 0.99126667
vt 0.28777214 0.47326667
vt 0.29886552 0.99126667
vt 0.29886552 0.47326667
vt 0.31105512 0.40746081
vt 0.31105512 0.66167026
vt 0.31447216 0.71478359
vt 0.31447216 0.96734069
vt 0.33348687 0.28550797
vt 0.33374215 0.24498074
vt 0.33402356 0.20442449
vt 0.33429803 0.16413001
vt 0.33504263 0.38347330
vt 0.33504263 0.68565777
vt 0.33580285 1.1241974e-2
vt 0.33830375 0.69095199
vt 0.33830375 0.99117229
vt 0.37308789 0.35244207
vt 0.37308789 0.36810806
vt 0.37635163 0.32681647
vt 0.37635163 0.34248246
vt 0.37977381 0.35244207
vt 0.37977381 0.36810806
vt 0.38303755 0.32681647
vt 0.38303755 0.34248246
vt 0.38832957 0.28558873
vt 0.38837687 0.24520914
vt 0.38837813 0.20489862
vt 0.38853634 0.16464335
vt 0.38992279 1.1791360e-2
vt 0.44278998 0.16496449
vt 0.44279762 0.28550797
vt 0.44282920 0.14856564
vt 0.44387645 2.8832562e-2
vt 0.44402395 1.2341837e-2
vt 0.45380416 1.6120444e-2
vt 0.45380416 0.27336044
vt 0.46950478 1.6120444e-2
vt 0.46950478 0.27336044
vt 0.49359553 0.35244207
vt 0.49359553 0.36810806
vt 0.49685927 0.32681647
vt 0.49685927 0.34248246
vt 0.50028145 0.35244207
vt 0.50028145 0.36810806
vt 0.50354519 0.32681647
vt 0.50354519 0.34248246
vt 0.58357811 1.6120444e-2
vt 0.58357811 0.27336044
vt 0.58925208 0.38347330
vt 0.58925208 0.68565777
vt 0.59086086 0.69095199
vt 0.59086086 0.99117229
vt 0.59927873 1.6120444e-2
vt 0.59927873 0.27336044
vt 0.61323959 0.40746081
vt 0.61323959 0.51668614
vt 0.61323959 0.55244493
vt 0.61323959 0.66167026
vt 0.61410318 0.35244207
vt 0.61410318 0.36810806
vt 0.61469245 0.71478359
vt 0.61469245 0.96734069
vt 0.61736692 0.32681647
vt 0.61736692 0.34248246
vt 0.63313265 0.59180885
vt 0.63320199 0.34370247
vt 0.63840251 0.94451010
vt 0.63998936 0.69195799
vt 0.64151930 0.61206957
vt 0.64158626 0.32344649
vt 0.64485197 0.96036146
vt 0.64663751 0.67618892
vt 0.65595007 0.94462036
vt 0.65733793 0.94803143
vt 0.65753692 0.69206824
vt 0.65896754 0.68867488
vt 0.66178229 0.59181679
vt 0.66185041 0.34370810
vt 0.66492499 0.63549106
vt 0.66501557 0.30004050
vt 0.66853336 0.98434233
vt 0.67061837 0.65250753
vt 0.67240766 0.93991211
vt 0.67393405 0.69698292
vt 0.68101932 0.97201229
vt 0.68294840 0.66499349
vt 0.68430243 0.99099047
vt 0.68441269 0.97344292
vt 0.68518105 0.64388467
vt 0.68518820 0.61523481
vt 0.68527028 0.32030126
vt 0.68527612 0.29165304
vt 0.68635948 0.66360562
vt 0.68646973 0.64605806
vt 0.68932737 0.95704579
vt 0.69106772 0.68006321
vt 0.71335206 1.6120444e-2
vt 0.71335206 0.27336044
vt 0.72493828 1.8168444e-2
vt 0.72493828 0.27540844
vt 0.79187203 0.32033206
vt 0.79187943 0.29168330
vt 0.82677161 0.32034144
vt 0.82678045 0.29169089
vt 0.83901161 1.8168444e-2
vt 0.83901161 0.27540844
vt 0.85471224 1.8168444e-2
vt 0.85471224 0.27540844
vt 0.93225656 0.95857218
vt 0.93328849 0.64395106
vt 0.93329454 0.61529964
vt 0.93337745 0.32037035
vt 0.93338448 0.29172035
vt 0.93399691 0.68158960
vt 0.93685455 0.99257733
vt 0.93696480 0.97502977
vt 0.93891159 0.66519247
vt 0.93902185 0.64764492
vt 0.94037587 0.97364190
vt 0.94230496 0.66662310
vt 0.94939023 0.94165247
vt 0.95091662 0.69872328
vt 0.95270591 0.98612786
vt 0.95353997 0.63556904
vt 0.95364591 0.30012119
vt 0.95479092 0.65429306
vt 0.95671564 0.59189727
vt 0.95678209 0.34378896
vt 0.96435674 0.94996051
vt 0.96578736 0.94656715
vt 0.96598634 0.69060396
vt 0.96737421 0.69401503
vt 0.96878557 1.8168444e-2
vt 0.96878557 0.27540844
vt 0.97668677 0.96244647
vt 0.97697013 0.61218745
vt 0.97704579 0.32353992
vt 0.97847231 0.67827393
vt 0.98333492 0.94667740
vt 0.98448619 1.8168444e-2
vt 0.98448619 0.27540844
vt 0.98492177 0.69412529
vt 0.98536937 0.59190344
vt 0.98543246 0.34379570
vn -0.33655677 -0.47596315 0.81251992
vn -0.81251992 -0.47596315 0.33655677
vn -0.33655677 0.47596315 0.81251992
vn -0.81251992 0.47596315 0.33655677
vn 0.33655677 0.47596315 0.81251992
vn 0.81251992 0.47596315 0.33655677
vn 0.33655677 -0.47596315 0.81251992
vn 0.81251992 -0.47596315 0.33655677
vn -0.81251992 -0.47596315 -0.33655677
vn -0.33655677 -0.47596315 -0.81251992
vn -0.81251992 0.47596315 -0.33655677
vn -0.33655677 0.47596315 -0.81251992
vn 0.33655677 0.47596315 -0.81251992
vn 0.81251992 0.47596315 -0.33655677
vn 0.33655677 -0.47596315 -0.81251992
vn 0.81251992 -0.47596315 -0.33655677
vn -0.40824829 -0.81649658 0.40824829
vn -0.40824829 -0.81649658 -0.40824829
vn -0.40824829 0.81649658 0.40824829
vn -0.40824829 0.81649658 -0.40824829
vn -0.57735027 0.57735027 -0.57735027
vn -0.57735027 -0.57735027 -0.57735027
vn -0.57735027 -0.57735027 0.57735027
vn -0.57735027 0.57735027 0.57735027
vn -0.57735027 -0.57735027 0.57735027
vn -0.57735027 0.57735027 0.57735027
vn 0.57735027 0.57735027 0.57735027
vn 0.57735027 -0.57735027 0.57735027
vn -0.57735027 -0.57735027 -0.57735027
vn -0.57735027 0.57735027 -0.57735027
vn 0.57735027 0.57735027 -0.57735027
vn 0.57735027 -0.57735027 -0.57735027
vn 0.89442719 0.44721360 0.0000000e+0
vn 0.89442719 0.44721360 0.0000000e+0
vn 0.89442719 0.44721360 0.0000000e+0
vn 0.89442719 0.44721360 0.0000000e+0
vn 0.89442719 -0.44721360 0.0000000e+0
vn 0.89442719 -0.44721360 0.0000000e+0
vn 0.89442719 -0.44721360 0.0000000e+0
vn 0.89442719 -0.44721360 0.0000000e+0
vn 0.81649658 0.40824829 0.40824829
vn 0.81649658 -0.40824829 0.40824829
vn 0.81649658 0.40824829 -0.40824829
vn 0.81649658 -0.40824829 -0.40824829
vn 0.81649658 0.40824829 0.40824829
vn 0.81649658 -0.40824829 0.40824829
vn 0.81649658 0.40824829 -0.40824829
vn 0.81649658 -0.40824829 -0.40824829
vn 0.50544947 -0.61013148 0.61013148
vn 0.50544947 -0.61013148 -0.61013148
vn 0.50544947 0.61013148 -0.61013148
vn 0.50544947 0.61013148 0.61013148
vn 0.50544947 -0.61013148 0.61013148
vn 0.50544947 -0.61013148 -0.61013148
vn 0.50544947 0.61013148 -0.61013148
vn 0.50544947 0.61013148 0.61013148
vn 0.92387953 -0.27059805 0.27059805
vn 0.92387953 -0.27059805 -0.27059805
vn 0.92387953 0.27059805 -0.27059805
vn 0.92387953 0.27059805 0.27059805
vn 0.92387953 -0.27059805 0.27059805
vn 0.92387953 -0.27059805 -0.27059805
vn 0.92387953 0.27059805 -0.27059805
vn 0.92387953 0.27059805 0.27059805
vn -0.57735027 -0.57735027 0.57735027
vn -0.57735027 0.57735027 0.57735027
vn 0.57735027 0.57735027 0.57735027
vn 0.57735027 -0.57735027 0.57735027
vn -0.57735027 -0.57735027 -0.57735027
vn -0.57735027 0.57735027 -0.57735027
vn 0.57735027 0.57735027 -0.57735027
vn 0.57735027 -0.57735027 -0.57735027
vn -0.57735027 -0.57735027 0.57735027
vn -0.57735027 0.57735027 0.57735027
vn 0.57735027 0.57735027 0.57735027
vn 0.57735027 -0.57735027 0.57735027
vn -0.57735027 -0.57735027 -0.57735027
vn -0.57735027 0.57735027 -0.57735027
vn 0.57735027 0.57735027 -0.57735027
vn 0.57735027 -0.57735027 -0.57735027
vn -0.57735027 -0.57735027 0.57735027
vn -0.57735027 0.57735027 0.57735027
vn 0.57735027 0.57735027 0.57735027
vn 0.57735027 -0.57735027 0.57735027
vn -0.57735027 -0.57735027 -0.57735027
vn -0.57735027 0.57735027 -0.57735027
vn 0.57735027 0.57735027 -0.57735027
vn 0.57735027 -0.57735027 -0.57735027
vn -0.57735027 -0.57735027 0.57735027
vn -0.57735027 0.57735027 0.57735027
vn 0.57735027 0.57735027 0.57735027
vn 0.57735027 -0.57735027 0.57735027
vn -0.57735027 -0.57735027 -0.57735027
vn -0.57735027 0.57735027 -0.57735027
vn 0.57735027 0.57735027 -0.57735027
vn 0.57735027 -0.57735027 -0.57735027
vn -0.33655677 -0.47596315 0.81251992
vn -0.81251992 -0.47596315 0.33655677
vn 0.33655677 -0.47596315 0.81251992
vn 0.81251992 -0.47596315 0.33655677
vn -0.81251992 -0.47596315 -0.33655677
vn -0.33655677 -0.47596315 -0.81251992
vn 0.33655677 -0.47596315 -0.81251992
vn 0.81251992 -0.47596315 -0.33655677
vn -0.34919364 0.40910580 0.84302802
vn -0.84302802 0.40910580 0.34919364
vn 0.34919364 0.40910580 0.84302802
vn 0.84302802 0.40910580 0.34919364
vn -0.84302802 0.40910580 -0.34919364
vn -0.34919364 0.40910580 -0.84302802
vn 0.34919364 0.40910580 -0.84302802
vn 0.84302802 0.40910580 -0.34919364
vn -0.18214321 0.87946522 0.43973261
vn 0.18214321 0.87946522 0.43973261
vn 0.43973261 0.87946522 0.18214321
vn 0.43973261 0.87946522 -0.18214321
vn 0.18214321 0.87946522 -0.43973261
vn -0.18214321 0.87946522 -0.43973261
vn -0.43973261 0.87946522 -0.18214321
vn -0.43973261 0.87946522 0.18214321
vn -0.57735027 -0.57735027 0.57735027
vn -0.57735027 0.57735027 0.57735027
vn 0.57735027 0.57735027 0.57735027
vn 0.57735027 -0.57735027 0.57735027
vn -0.57735027 -0.57735027 -0.57735027
vn -0.57735027 0.57735027 -0.57735027
vn 0.57735027 0.57735027 -0.57735027
vn 0.57735027 -0.57735027 -0.57735027
vn -0.57735027 -0.57735027 0.57735027
vn -0.57735027 0.57735027 0.57735027
vn 0.57735027 0.57735027 0.57735027
vn 0.57735027 -0.57735027 0.57735027
vn -0.57735027 -0.57735027 -0.57735027
vn -0.57735027 0.57735027 -0.57735027
vn 0.57735027 0.57735027 -0.57735027
vn 0.57735027 -0.57735027 -0.57735027
g cube1_cube1_auv
usemtl cube1_auv
f 1/191/1 2/197/2 17/198/17 18/199/18 9/200/9 10/192/10 15/155/15 16/147/16 8/146/8 7/154/7
f 1/279/1 3/270/3 4/254/4 2/267/2
f 2/255/2 4/254/4 19/245/19 17/246/17
f 5/269/5 6/253/6 14/232/14 13/219/13 12/220/12 11/233/11 20/243/20 19/245/19 4/254/4 3/270/3
f 6/253/6 8/252/8 16/231/16 14/232/14
f 7/285/7 5/269/5 3/270/3 1/286/1
f 8/266/8 6/253/6 5/269/5 7/278/7
f 9/234/9 18/244/18 20/243/20 11/233/11
f 10/208/10 12/220/12 13/219/13 15/207/15
f 12/220/12 10/212/10 9/222/9 11/233/11
f 14/232/14 16/221/16 15/211/15 13/219/13
f 17/1/17 23/2/23 22/13/22 18/14/18
f 18/14/18 22/13/22 21/31/21 20/32/20
f 19/38/19 24/37/24 23/41/23 17/42/17
f 20/32/20 21/31/21 24/37/24 19/38/19
f 22/98/22 23/99/23 24/84/24 21/83/21
f 25/181/25 28/182/28 27/164/27 26/163/26
f 25/175/25 29/94/29 32/95/32 40/116/40 39/139/39 38/156/38 37/171/37 28/176/28
f 26/174/26 30/91/30 29/94/29 25/175/25
f 27/172/27 33/170/33 34/153/34 35/138/35 36/113/36 31/90/31 30/91/30 26/174/26
f 28/173/28 37/167/37 42/168/42 41/169/41 33/170/33 27/172/27
f 30/126/30 31/125/31 32/159/32 29/160/29
f 31/90/31 36/113/36 47/112/47 48/111/48 40/110/40 32/89/32
f 33/170/33 41/169/41 43/152/43 34/153/34
f 34/153/34 43/152/43 44/151/44 38/150/38 39/135/39 46/136/46 45/137/45 35/138/35
f 35/138/35 45/137/45 47/112/47 36/113/36
f 38/150/38 44/151/44 42/168/42 37/167/37
f 40/110/40 48/111/48 46/136/46 39/135/39
f 41/60/41 52/59/52 51/19/51 43/20/43
f 42/77/42 49/65/49 52/66/52 41/78/41
f 43/6/43 51/12/51 50/11/50 44/5/44
f 44/17/44 50/18/50 49/58/49 42/57/42
f 45/64/45 56/63/56 55/23/55 47/24/47
f 46/79/46 53/67/53 56/68/56 45/80/45
f 47/8/47 55/16/55 54/15/54 48/7/48
f 48/21/48 54/22/54 53/62/53 46/61/46
f 49/65/49 57/45/57 60/46/60 52/66/52
f 50/18/50 58/27/58 57/45/57 49/58/49
f 51/12/51 59/28/59 58/27/58 50/11/50
f 52/59/52 60/46/60 59/28/59 51/19/51
f 53/67/53 61/49/61 64/50/64 56/68/56
f 54/22/54 62/29/62 61/49/61 53/62/53
f 55/16/55 63/30/63 62/29/62 54/15/54
f 56/63/56 64/50/64 63/30/63 55/23/55
f 58/27/58 59/28/59 60/46/60 57/45/57
f 62/29/62 63/30/63 64/50/64 61/49/61
f 65/183/65 68/184/68 67/166/67 66/165/66
f 65/276/65 69/275/69 72/282/72 68/283/68
f 66/250/66 70/249/70 69/275/69 65/276/65
f 67/248/67 71/247/71 70/249/70 66/250/66
f 68/242/68 72/241/72 71/247/71 67/248/67
f 70/186/70 71/185/71 72/201/72 69/202/69
f 73/205/73 76/206/76 75/188/75 74/187/74
f 73/178/73 77/177/77 80/179/80 76/180/76
f 74/196/74 78/195/78 77/239/77 73/240/73
f 75/190/75 79/189/79 78/195/78 74/196/74
f 76/180/76 80/179/80 79/189/79 75/190/75
f 78/130/78 79/129/79 80/161/80 77/162/77
f 81/75/81 84/51/84 83/52/83 82/76/82
f 81/93/81 85/86/85 88/85/88 84/92/84
f 82/76/82 86/82/86 85/81/85 81/75/81
f 83/73/83 87/74/87 86/48/86 82/47/82
f 84/51/84 88/44/88 87/43/87 83/52/83
f 86/40/86 87/43/87 88/44/88 85/39/85
f 89/26/89 92/10/92 91/9/91 90/25/90
f 89/70/89 93/54/93 96/53/96 92/69/92
f 90/25/90 94/33/94 93/34/93 89/26/89
f 91/72/91 95/56/95 94/55/94 90/71/90
f 92/10/92 96/4/96 95/3/95 91/9/91
f 94/33/94 95/35/95 96/36/96 93/34/93
f 97/193/97 98/203/98 101/204/101 102/194/102 103/158/103 104/149/104 100/148/100 99/157/99
f 97/224/97 105/228/105 106/218/106 98/214/98
f 98/210/98 106/217/106 109/215/109 101/209/101
f 99/260/99 107/259/107 105/235/105 97/236/97
f 100/280/100 108/273/108 107/262/107 99/268/99
f 101/213/101 109/216/109 110/227/110 102/223/102
f 102/229/102 110/230/110 111/258/111 103/257/103
f 103/265/103 111/261/111 112/271/112 104/277/104
f 104/281/104 112/272/112 108/274/108 100/284/100
f 105/228/105 113/238/113 120/226/120 106/218/106
f 106/217/106 120/226/120 119/225/119 109/215/109
f 107/259/107 114/256/114 113/238/113 105/235/105
f 108/273/108 115/264/115 114/256/114 107/262/107
f 109/216/109 119/225/119 118/237/118 110/227/110
f 110/230/110 118/237/118 117/251/117 111/258/111
f 111/261/111 117/251/117 116/263/116 112/271/112
f 112/272/112 116/263/116 115/264/115 108/274/108
f 114/256/114 115/264/115 116/263/116 117/251/117 118/237/118 119/225/119 120/226/120 113/238/113
f 121/120/121 124/124/124 123/123/123 122/119/122
f 121/141/121 125/134/125 128/133/128 124/140/124
f 122/144/122 126/142/126 125/143/125 121/145/121
f 123/128/123 127/122/127 126/121/126 122/127/122
f 124/124/124 128/132/128 127/131/127 123/123/123
f 126/142/126 127/131/127 128/132/128 125/143/125
f 129/96/129 132/87/132 131/88/131 130/97/130
f 129/118/129 133/109/133 136/108/136 132/117/132
f 130/97/130 134/101/134 133/100/133 129/96/129
f 131/105/131 135/103/135 134/102/134 130/104/130
f 132/114/132 136/106/136 135/107/135 131/115/131
f 134/101/134 135/107/135 136/106/136 133/100/133
