# Exported from Wings 3D 0.99.02
mtllib accu.mtl
o cube1_sep8
#36 vertices, 30 faces
v -0.50058576 1.24512907 0.13800000
v -0.56113660 1.23501807 7.6610773e-2
v -0.51249579 1.31645352 0.13800000
v -0.57304663 1.30634251 7.6610773e-2
v 0.48178752 1.48293108 0.13800000
v 0.54233836 1.49304209 7.6610773e-2
v 0.49369755 1.41160663 0.13800000
v 0.55424839 1.42171764 7.6610773e-2
v -0.56113660 1.23501807 -7.6610773e-2
v -0.50058576 1.24512907 -0.13800000
v -0.57304663 1.30634251 -7.6610773e-2
v -0.51249579 1.31645352 -0.13800000
v 0.48178752 1.48293108 -0.13800000
v 0.54233836 1.49304209 -7.6610773e-2
v 0.49369755 1.41160663 -0.13800000
v 0.55424839 1.42171764 -7.6610773e-2
v 0.27308707 1.44808148 0.13800000
v 0.27308707 1.44808148 -0.13800000
v 0.28499710 1.37675704 -0.13800000
v 0.28499710 1.37675704 0.13800000
v 0.43579714 1.40193820 -4.0066371e-2
v 0.43302739 1.40147570 4.0066371e-2
v 0.34556153 1.38687032 4.0066371e-2
v 0.34279178 1.38640781 -4.0066371e-2
v 0.33088176 1.45773226 -4.0066371e-2
v 0.33365151 1.45819476 4.0066371e-2
v 0.42111736 1.47280014 4.0066371e-2
v 0.42388712 1.47326265 -4.0066371e-2
v 0.44965222 1.39200846 -3.1918912e-19
v 0.39128344 1.38226182 6.4609100e-2
v 0.33103921 1.37220201 -3.1918912e-19
v 0.39128344 1.38226182 -6.4609100e-2
v 0.31515123 1.46734883 -3.1918912e-19
v 0.37539546 1.47740864 6.4609100e-2
v 0.43376424 1.48715528 -3.1918912e-19
v 0.37539546 1.47740864 -6.4609100e-2
vt 1.4258163e-2 0.21799426
vt 1.4439466e-2 0.27005900
vt 2.1393039e-2 0.20054928
vt 2.1654714e-2 0.28742129
vt 3.0936082e-2 0.34829122
vt 3.0965865e-2 0.40511021
vt 3.8865443e-2 0.21790876
vt 3.9011411e-2 0.26998651
vt 4.2243377e-2 0.17961017
vt 4.2596045e-2 0.30825118
vt 5.3691532e-2 0.32552000
vt 5.3742199e-2 0.42786265
vt 5.9654404e-2 0.17221776
vt 5.9717961e-2 0.19696627
vt 5.9936678e-2 0.29082011
vt 5.9994314e-2 0.31557400
vt 7.1194775e-2 0.37668823
vt 7.5857929e-2 0.24383393
vt 7.5868371e-2 0.39187292
vt 7.6839601e-2 0.36151567
vt 8.0099380e-2 0.22988750
vt 8.1052442e-2 0.25774296
vt 9.3239122e-2 0.35246383
vt 9.3262809e-2 0.40090557
vt 9.6034071e-2 0.22156382
vt 9.6105050e-2 0.26600188
vt 0.10965725 0.36150282
vt 0.11064600 0.39187397
vt 0.11108893 0.25768132
vt 0.11196095 0.22975143
vt 0.11597354 0.37667076
vt 0.11683951 0.24370795
vt 0.13201887 0.17204204
vt 0.13210663 0.19670357
vt 0.13236605 0.29069653
vt 0.13241549 0.31538339
vt 0.13273958 0.32545437
vt 0.13275905 0.42789732
vt 0.34960008 0.17142177
vt 0.34966984 0.19607767
vt 0.34992392 0.29015254
vt 0.34998847 0.31479461
vt 0.36707557 0.17861037
vt 0.36738319 0.30754510
vt 0.36966641 0.32539224
vt 0.36968195 0.42786265
vt 0.37065624 0.21693550
vt 0.37079062 0.26918103
vt 0.38802994 0.19949619
vt 0.38822142 0.28657963
vt 0.39247262 0.34817799
vt 0.39248281 0.40506681
vt 0.39531236 0.21686502
vt 0.39543609 0.26910567
vt 0.72195852 0.61469578
vt 0.72225616 0.64814896
vt 0.74164005 0.60889163
vt 0.74191551 0.65358226
vt 0.76188177 0.61439675
vt 0.76192440 0.64786142
vt 0.78520593 0.65343493
vt 0.78546353 0.60889163
vt 0.80848991 0.64799131
vt 0.80895376 0.61472486
vt 0.82784726 0.65383167
vt 0.82880310 0.60960849
vt 0.84700702 0.64874656
vt 0.84795332 0.61567386
vt 0.87098292 0.65504133
vt 0.87250312 0.61100039
vt 0.89536256 0.65047575
vt 0.89660652 0.61741563
vn -0.25334312 -0.52489793 0.81258811
vn -0.72293131 -0.60336883 0.33662497
vn -0.41056463 0.41395512 0.81245175
vn -0.87988385 0.33552918 0.33648861
vn 7.0546185e-2 0.86762284 0.49219290
vn 0.72303075 0.60328772 0.33655677
vn 0.34861633 -0.79762949 0.49219290
vn 0.87981617 -0.33563827 0.33655677
vn -0.72293131 -0.60336883 -0.33662497
vn -0.25334312 -0.52489793 -0.81258811
vn -0.87988385 0.33552918 -0.33648861
vn -0.41056463 0.41395512 -0.81245175
vn 7.0565289e-2 0.86779418 -0.49188800
vn 0.72303075 0.60328772 -0.33655677
vn 0.34869007 -0.79778533 -0.49188800
vn 0.87981617 -0.33563827 -0.33655677
vn -0.14933106 0.81306763 0.56269109
vn -0.14936498 0.81325049 -0.56241777
vn 0.12325572 -0.81761352 -0.56241992
vn 0.12322832 -0.81742957 0.56269324
vn -0.38266391 -0.82078498 0.42412303
vn -0.38057518 -0.81450364 -0.43788852
vn 0.61681351 -0.64541973 -0.45052687
vn 0.62107307 -0.65017438 0.43765456
vn 0.37613030 0.81669118 0.43765456
vn 0.37364667 0.81081052 -0.45052687
vn -0.62456604 0.64666135 -0.43788852
vn -0.62858231 0.65192326 0.42412303
vn -0.78908044 -0.61366842 -2.7624687e-2
vn 8.3077590e-2 -0.49751889 -0.86346573
vn 0.94352915 -0.33021318 -2.6683135e-2
vn 8.2270263e-2 -0.49268413 0.86631054
vn 0.78504968 0.61885783 -2.6683135e-2
vn -8.3077590e-2 0.49751889 -0.86346573
vn -0.94565515 0.32399570 -2.7624687e-2
vn -8.2270263e-2 0.49268413 0.86631054
g cube1_sep8_cube1_auv
usemtl cube1_auv
f 1/45/1 2/51/2 9/52/9 10/46/10 19/38/19 20/37/20
f 1/44/1 3/41/3 4/48/4 2/50/2
f 2/54/2 4/48/4 11/47/11 9/53/9
f 4/48/4 3/41/3 17/35/17 18/34/18 12/40/12 11/47/11
f 5/15/5 17/35/17 20/36/20 7/16/7
f 5/15/5 27/22/27 34/26/34 26/29/26 17/35/17
f 6/8/6 8/2/8 16/1/16 14/7/14
f 7/11/7 22/20/22 29/17/29 21/19/21 15/12/15
f 8/4/8 6/8/6 5/15/5 7/10/7
f 8/5/8 7/11/7 15/12/15 16/6/16
f 10/39/10 12/40/12 18/34/18 19/33/19
f 12/40/12 10/43/10 9/49/9 11/47/11
f 13/14/13 28/21/28 35/18/35 27/22/27 5/15/5
f 14/7/14 13/14/13 5/15/5 6/8/6
f 14/7/14 16/3/16 15/9/15 13/14/13
f 15/13/15 19/33/19 18/34/18 13/14/13
f 15/12/15 21/19/21 32/24/32 24/28/24 19/38/19
f 17/35/17 26/29/26 33/32/33 25/30/25 18/34/18
f 18/34/18 25/30/25 36/25/36 28/21/28 13/14/13
f 19/38/19 24/28/24 31/31/31 23/27/23 20/37/20
f 20/36/20 17/35/17 3/41/3 1/42/1
f 20/37/20 23/27/23 30/23/30 22/20/22 7/11/7
f 21/67/21 28/68/28 36/70/36 32/69/32
f 22/63/22 27/64/27 35/66/35 29/65/29
f 23/60/23 26/59/26 34/62/34 30/61/30
f 24/56/24 25/55/25 33/57/33 31/58/31
f 25/72/25 24/71/24 32/69/32 36/70/36
f 26/59/26 23/60/23 31/58/31 33/57/33
f 27/64/27 22/63/22 30/61/30 34/62/34
f 28/68/28 21/67/21 29/65/29 35/66/35
o cube1
#144 vertices, 98 faces
v -2.01363395 -1.5424710e-3 0.45972800
v -2.03923698 1.22625179 0.47200000
v -6.9772984e-2 1.22625179 0.47200000
v -9.5376016e-2 -1.5424710e-3 0.45972800
v -2.01363395 -1.5424710e-3 -0.45972800
v -2.03923698 1.22625179 -0.47200000
v -6.9772984e-2 1.22625179 -0.47200000
v -9.5376016e-2 -1.5424710e-3 -0.45972800
v -2.03923698 1.13448416 0.47200000
v -2.01363395 1.08976775 0.45972800
v -9.5376016e-2 1.08976775 0.45972800
v -6.9772984e-2 1.13448416 0.47200000
v -2.03923698 1.13448416 -0.47200000
v -2.01363395 1.08976775 -0.45972800
v -6.9772984e-2 1.13448416 -0.47200000
v -9.5376016e-2 1.08976775 -0.45972800
v -1.94294898 1.22625179 0.37571200
v -0.16606098 1.22625179 0.37571200
v -0.16606098 1.22625179 -0.37571200
v -1.94294898 1.22625179 -0.37571200
v -1.94294898 1.18450470 0.37571200
v -0.16606098 1.18450470 0.37571200
v -0.16606098 1.18450470 -0.37571200
v -1.94294898 1.18450470 -0.37571200
v -0.32150385 1.36427287 -6.4619555e-18
v -0.34001023 1.36427287 4.4678367e-2
v -0.38468860 1.36427287 6.3184752e-2
v -0.42936696 1.36427287 4.4678367e-2
v -0.44787335 1.36427287 1.2759449e-18
v -0.42936696 1.36427287 -4.4678367e-2
v -0.38468860 1.36427287 -6.3184752e-2
v -0.34001023 1.36427287 -4.4678367e-2
v -0.30610060 1.17128648 -7.1840034e-18
v -0.32911849 1.17128648 5.5570108e-2
v -0.38468860 1.17128648 7.8588000e-2
v -0.44025870 1.17128648 5.5570108e-2
v -0.46327660 1.17128648 2.4402509e-18
v -0.44025870 1.17128648 -5.5570108e-2
v -0.38468860 1.17128648 -7.8588000e-2
v -0.32911849 1.17128648 -5.5570108e-2
v -1.81156030 1.36427287 -6.4619555e-18
v -1.79305392 1.36427287 4.4678367e-2
v -1.74837555 1.36427287 6.3184752e-2
v -1.70369718 1.36427287 4.4678367e-2
v -1.68519080 1.36427287 1.2759449e-18
v -1.70369718 1.36427287 -4.4678367e-2
v -1.74837555 1.36427287 -6.3184752e-2
v -1.79305392 1.36427287 -4.4678367e-2
v -1.82696355 1.17128648 -7.1840034e-18
v -1.80394566 1.17128648 5.5570108e-2
v -1.74837555 1.17128648 7.8588000e-2
v -1.69280544 1.17128648 5.5570108e-2
v -1.66978755 1.17128648 2.4402509e-18
v -1.69280544 1.17128648 -5.5570108e-2
v -1.74837555 1.17128648 -7.8588000e-2
v -1.80394566 1.17128648 -5.5570108e-2
v -2.24656706 1.24655716 0.13800000
v -2.29199509 1.24655716 7.6610773e-2
v -2.24656706 1.31886916 0.13800000
v -2.29199509 1.31886916 7.6610773e-2
v -1.61774508 1.31886916 0.13800000
v -1.57231705 1.31886916 7.6610773e-2
v -1.61774508 1.24655716 0.13800000
v -1.57231705 1.24655716 7.6610773e-2
v -2.29199509 1.24655716 -7.6610773e-2
v -2.24656706 1.24655716 -0.13800000
v -2.29199509 1.31886916 -7.6610773e-2
v -2.24656706 1.31886916 -0.13800000
v -1.61774508 1.31886916 -0.13800000
v -1.57231705 1.31886916 -7.6610773e-2
v -1.61774508 1.24655716 -0.13800000
v -1.57231705 1.24655716 -7.6610773e-2
v 2.01392082 -1.5424710e-3 0.45972800
v 2.03952385 1.22625179 0.47200000
v 7.0059853e-2 1.22625179 0.47200000
v 9.5662885e-2 -1.5424710e-3 0.45972800
v 2.01392082 -1.5424710e-3 -0.45972800
v 2.03952385 1.22625179 -0.47200000
v 7.0059853e-2 1.22625179 -0.47200000
v 9.5662885e-2 -1.5424710e-3 -0.45972800
v 2.03952385 1.13448416 0.47200000
v 2.01392082 1.08976775 0.45972800
v 9.5662885e-2 1.08976775 0.45972800
v 7.0059853e-2 1.13448416 0.47200000
v 2.03952385 1.13448416 -0.47200000
v 2.01392082 1.08976775 -0.45972800
v 7.0059853e-2 1.13448416 -0.47200000
v 9.5662885e-2 1.08976775 -0.45972800
v 1.94323585 1.22625179 0.37571200
v 0.16634785 1.22625179 0.37571200
v 0.16634785 1.22625179 -0.37571200
v 1.94323585 1.22625179 -0.37571200
v 1.94323585 1.18450470 0.37571200
v 0.16634785 1.18450470 0.37571200
v 0.16634785 1.18450470 -0.37571200
v 1.94323585 1.18450470 -0.37571200
v 0.32179071 1.36427287 -6.4619555e-18
v 0.34029710 1.36427287 4.4678367e-2
v 0.38497547 1.36427287 6.3184752e-2
v 0.42965383 1.36427287 4.4678367e-2
v 0.44816022 1.36427287 1.2759449e-18
v 0.42965383 1.36427287 -4.4678367e-2
v 0.38497547 1.36427287 -6.3184752e-2
v 0.34029710 1.36427287 -4.4678367e-2
v 0.30638747 1.17128648 -7.1840034e-18
v 0.32940536 1.17128648 5.5570108e-2
v 0.38497547 1.17128648 7.8588000e-2
v 0.44054557 1.17128648 5.5570108e-2
v 0.46356347 1.17128648 2.4402509e-18
v 0.44054557 1.17128648 -5.5570108e-2
v 0.38497547 1.17128648 -7.8588000e-2
v 0.32940536 1.17128648 -5.5570108e-2
v 1.81184717 1.36427287 -6.4619555e-18
v 1.79334079 1.36427287 4.4678367e-2
v 1.74866242 1.36427287 6.3184752e-2
v 1.70398405 1.36427287 4.4678367e-2
v 1.68547767 1.36427287 1.2759449e-18
v 1.70398405 1.36427287 -4.4678367e-2
v 1.74866242 1.36427287 -6.3184752e-2
v 1.79334079 1.36427287 -4.4678367e-2
v 1.82725042 1.17128648 -7.1840034e-18
v 1.80423253 1.17128648 5.5570108e-2
v 1.74866242 1.17128648 7.8588000e-2
v 1.69309231 1.17128648 5.5570108e-2
v 1.67007442 1.17128648 2.4402509e-18
v 1.69309231 1.17128648 -5.5570108e-2
v 1.74866242 1.17128648 -7.8588000e-2
v 1.80423253 1.17128648 -5.5570108e-2
v 2.24685393 1.24655716 0.13800000
v 2.29228195 1.24655716 7.6610773e-2
v 2.24685393 1.31886916 0.13800000
v 2.29228195 1.31886916 7.6610773e-2
v 1.61803195 1.31886916 0.13800000
v 1.57260392 1.31886916 7.6610773e-2
v 1.61803195 1.24655716 0.13800000
v 1.57260392 1.24655716 7.6610773e-2
v 2.29228195 1.24655716 -7.6610773e-2
v 2.24685393 1.24655716 -0.13800000
v 2.29228195 1.31886916 -7.6610773e-2
v 2.24685393 1.31886916 -0.13800000
v 1.61803195 1.31886916 -0.13800000
v 1.57260392 1.31886916 -7.6610773e-2
v 1.61803195 1.24655716 -0.13800000
v 1.57260392 1.24655716 -7.6610773e-2
vt 1.8303840e-2 0.98867008
vt 1.8542091e-2 0.97000127
vt 1.9678217e-2 0.95449850
vt 2.1084907e-2 0.66323052
vt 3.1255808e-2 0.64043090
vt 3.1271754e-2 0.44690101
vt 3.4699686e-2 0.11485803
vt 3.4810849e-2 5.7333219e-2
vt 3.9993875e-2 0.13101741
vt 4.0167453e-2 4.1194420e-2
vt 5.0873071e-2 0.62098901
vt 5.0885812e-2 0.46634670
vt 5.7004632e-2 0.15409806
vt 5.7258073e-2 0.61369190
vt 5.7267286e-2 1.8179683e-2
vt 5.7269612e-2 0.47364504
vt 6.1848178e-2 0.11491049
vt 6.1959341e-2 5.7385682e-2
vt 7.8806471e-2 0.16513964
vt 7.8858934e-2 0.13799114
vt 7.9059174e-2 3.4370945e-2
vt 7.9111637e-2 7.2224532e-3
vt 0.17225649 0.98875295
vt 0.17236901 0.97007938
vt 0.17363365 0.95458160
vt 0.17454600 0.66327059
vt 0.31488857 0.16559585
vt 0.31494103 0.13844736
vt 0.31514127 3.4827160e-2
vt 0.31519373 7.6786679e-3
vt 0.33204086 0.11543262
vt 0.33215203 5.7907814e-2
vt 0.33673292 0.15463862
vt 0.33699557 1.8720241e-2
vt 0.35383275 0.13162388
vt 0.35400633 4.1800895e-2
vt 0.35918936 0.11548508
vt 0.35930052 5.7960277e-2
vt 0.39714615 0.61372477
vt 0.39715768 0.47367791
vt 0.40352995 0.62102311
vt 0.40354269 0.46638080
vt 0.42314400 0.64046880
vt 0.42315995 0.44693890
vt 0.44267186 0.38928448
vt 0.44267186 0.44680939
vt 0.44675371 0.50629675
vt 0.45972718 0.36623674
vt 0.45972718 0.46985713
vt 0.47772739 0.49733064
vt 0.47863491 0.60506665
vt 0.49991029 0.66327328
vt 0.50011724 0.95462175
vt 0.50134734 0.98879820
vt 0.50135126 0.97012170
vt 0.50353775 0.59785790
vt 0.50918938 0.49026640
vt 0.52883319 0.59217825
vt 0.54102300 0.48513023
vt 0.55442742 0.58804877
vt 0.57311022 0.48194116
vt 0.58022555 0.58548476
vt 0.60533206 0.48071103
vt 0.60613191 0.58449573
vt 0.63205043 0.58508536
vt 0.63336907 0.62840629
vt 0.63710359 0.60275145
vt 0.63756903 0.48144439
vt 0.64886908 0.64918771
vt 0.65377900 0.66327260
vt 0.65411186 0.97007701
vt 0.65430534 0.98874844
vt 0.65520724 0.95457900
vt 0.65788501 0.58725145
vt 0.66970159 0.48413853
vt 0.67452392 0.65292223
vt 0.68353985 0.59098597
vt 0.69530533 0.63742222
vt 0.69580972 0.36623674
vt 0.69580972 0.46985713
vt 0.69903985 0.61176738
vt 0.70161060 0.48878346
vt 0.71286505 0.38928448
vt 0.71286505 0.44680939
vt 0.72263235 0.49926021
vt 0.75360603 0.49029410
vt 0.75451355 0.59803011
vt 0.77941639 0.59082136
vt 0.78506801 0.48322986
vt 0.80471182 0.58514172
vt 0.81690164 0.47809369
vt 0.83030606 0.58101223
vt 0.84898886 0.47490462
vt 0.85610418 0.57844822
vt 0.88121070 0.47367449
vt 0.88201054 0.57745919
vt 0.90792906 0.57804882
vt 0.90924770 0.62136975
vt 0.91298223 0.59571491
vt 0.91344766 0.47440785
vt 0.92474771 0.64215117
vt 0.93376364 0.58021491
vt 0.94558023 0.47710199
vt 0.95040255 0.64588569
vt 0.95941848 0.58394943
vt 0.97118397 0.63038568
vt 0.97491849 0.60473084
vt 0.97636543 0.66315610
vt 0.97748923 0.48174692
vt 0.97832543 0.95443461
vt 0.98061215 0.96992474
vt 0.98081810 0.98859898
vn -0.70710678 0.0000000e+0 0.70710678
vn -0.40824829 0.81649658 0.40824829
vn 0.40824829 0.81649658 0.40824829
vn 0.70710678 0.0000000e+0 0.70710678
vn -0.70710678 0.0000000e+0 -0.70710678
vn -0.40824829 0.81649658 -0.40824829
vn 0.40824829 0.81649658 -0.40824829
vn 0.70710678 0.0000000e+0 -0.70710678
vn -0.66339349 -0.27047525 0.69767630
vn -0.66339349 -0.27047525 0.69767630
vn 0.66339349 -0.27047525 0.69767630
vn 0.66339349 -0.27047525 0.69767630
vn -0.66339349 -0.27047525 -0.69767630
vn -0.66339349 -0.27047525 -0.69767630
vn 0.66339349 -0.27047525 -0.69767630
vn 0.66339349 -0.27047525 -0.69767630
vn 0.40824829 0.81649658 -0.40824829
vn -0.40824829 0.81649658 -0.40824829
vn -0.40824829 0.81649658 0.40824829
vn 0.40824829 0.81649658 0.40824829
vn 0.57735027 0.57735027 -0.57735027
vn -0.57735027 0.57735027 -0.57735027
vn -0.57735027 0.57735027 0.57735027
vn 0.57735027 0.57735027 0.57735027
vn 0.84895816 0.52846007 2.5574004e-17
vn 0.60030407 0.52846007 0.60030407
vn 1.5344402e-16 0.52846007 0.84895816
vn -0.60030407 0.52846007 0.60030407
vn -0.84895816 0.52846007 4.6033207e-16
vn -0.60030407 0.52846007 -0.60030407
vn -2.0459203e-16 0.52846007 -0.84895816
vn 0.60030407 0.52846007 -0.60030407
vn 0.99682990 7.9562185e-2 -6.3059830e-16
vn 0.70486519 7.9562185e-2 0.70486519
vn 1.8017094e-16 7.9562185e-2 0.99682990
vn -0.70486519 7.9562185e-2 0.70486519
vn -0.99682990 7.9562185e-2 -1.2011396e-16
vn -0.70486519 7.9562185e-2 -0.70486519
vn -2.4022792e-16 7.9562185e-2 -0.99682990
vn 0.70486519 7.9562185e-2 -0.70486519
vn -0.84895816 0.52846007 4.0918406e-16
vn -0.60030407 0.52846007 0.60030407
vn -1.7901803e-16 0.52846007 0.84895816
vn 0.60030407 0.52846007 0.60030407
vn 0.84895816 0.52846007 1.5344402e-16
vn 0.60030407 0.52846007 -0.60030407
vn 9.2066414e-16 0.52846007 -0.84895816
vn -0.60030407 0.52846007 -0.60030407
vn -0.99682990 7.9562185e-2 1.5014245e-16
vn -0.70486519 7.9562185e-2 0.70486519
vn -2.1019943e-16 7.9562185e-2 0.99682990
vn 0.70486519 7.9562185e-2 0.70486519
vn 0.99682990 7.9562185e-2 -1.5014245e-16
vn 0.70486519 7.9562185e-2 -0.70486519
vn 1.0810256e-15 7.9562185e-2 -0.99682990
vn -0.70486519 7.9562185e-2 -0.70486519
vn -0.39271718 -0.48855027 0.77916099
vn -0.84034406 -0.46586348 0.27711563
vn -0.39271718 0.48855027 0.77916099
vn -0.84034406 0.46586348 0.27711563
vn 0.39271718 0.48855027 0.77916099
vn 0.84034406 0.46586348 0.27711563
vn 0.39271718 -0.48855027 0.77916099
vn 0.84034406 -0.46586348 0.27711563
vn -0.84034406 -0.46586348 -0.27711563
vn -0.39271718 -0.48855027 -0.77916099
vn -0.84034406 0.46586348 -0.27711563
vn -0.39271718 0.48855027 -0.77916099
vn 0.39271718 0.48855027 -0.77916099
vn 0.84034406 0.46586348 -0.27711563
vn 0.39271718 -0.48855027 -0.77916099
vn 0.84034406 -0.46586348 -0.27711563
vn 0.70710678 0.0000000e+0 0.70710678
vn 0.40824829 0.81649658 0.40824829
vn -0.40824829 0.81649658 0.40824829
vn -0.70710678 0.0000000e+0 0.70710678
vn 0.70710678 0.0000000e+0 -0.70710678
vn 0.40824829 0.81649658 -0.40824829
vn -0.40824829 0.81649658 -0.40824829
vn -0.70710678 0.0000000e+0 -0.70710678
vn 0.66339349 -0.27047525 0.69767630
vn 0.66339349 -0.27047525 0.69767630
vn -0.66339349 -0.27047525 0.69767630
vn -0.66339349 -0.27047525 0.69767630
vn 0.66339349 -0.27047525 -0.69767630
vn 0.66339349 -0.27047525 -0.69767630
vn -0.66339349 -0.27047525 -0.69767630
vn -0.66339349 -0.27047525 -0.69767630
vn -0.40824829 0.81649658 -0.40824829
vn 0.40824829 0.81649658 -0.40824829
vn 0.40824829 0.81649658 0.40824829
vn -0.40824829 0.81649658 0.40824829
vn -0.57735027 0.57735027 -0.57735027
vn 0.57735027 0.57735027 -0.57735027
vn 0.57735027 0.57735027 0.57735027
vn -0.57735027 0.57735027 0.57735027
vn -0.84895816 0.52846007 -1.6878843e-15
vn -0.60030407 0.52846007 0.60030407
vn 5.1148008e-17 0.52846007 0.84895816
vn 0.60030407 0.52846007 0.60030407
vn 0.84895816 0.52846007 -1.0229602e-16
vn 0.60030407 0.52846007 -0.60030407
vn -5.3705408e-16 0.52846007 -0.84895816
vn -0.60030407 0.52846007 -0.60030407
vn -0.99682990 7.9562185e-2 -1.9818804e-15
vn -0.70486519 7.9562185e-2 0.70486519
vn 6.0056981e-17 7.9562185e-2 0.99682990
vn 0.70486519 7.9562185e-2 0.70486519
vn 0.99682990 7.9562185e-2 -1.2011396e-16
vn 0.70486519 7.9562185e-2 -0.70486519
vn -6.3059830e-16 7.9562185e-2 -0.99682990
vn -0.70486519 7.9562185e-2 -0.70486519
vn 0.84895816 0.52846007 8.4394213e-16
vn 0.60030407 0.52846007 0.60030407
vn -7.4164611e-16 0.52846007 0.84895816
vn -0.60030407 0.52846007 0.60030407
vn -0.84895816 0.52846007 6.3935010e-16
vn -0.60030407 0.52846007 -0.60030407
vn -3.4269165e-15 0.52846007 -0.84895816
vn 0.60030407 0.52846007 -0.60030407
vn 0.99682990 7.9562185e-2 1.5014245e-16
vn 0.70486519 7.9562185e-2 0.70486519
vn -8.7082622e-16 7.9562185e-2 0.99682990
vn -0.70486519 7.9562185e-2 0.70486519
vn -0.99682990 7.9562185e-2 -9.0085471e-17
vn -0.70486519 7.9562185e-2 -0.70486519
vn -4.0238177e-15 7.9562185e-2 -0.99682990
vn 0.70486519 7.9562185e-2 -0.70486519
vn 0.39271718 -0.48855027 0.77916099
vn 0.84034406 -0.46586348 0.27711563
vn 0.39271718 0.48855027 0.77916099
vn 0.84034406 0.46586348 0.27711563
vn -0.39271718 0.48855027 0.77916099
vn -0.84034406 0.46586348 0.27711563
vn -0.39271718 -0.48855027 0.77916099
vn -0.84034406 -0.46586348 0.27711563
vn 0.84034406 -0.46586348 -0.27711563
vn 0.39271718 -0.48855027 -0.77916099
vn 0.84034406 0.46586348 -0.27711563
vn 0.39271718 0.48855027 -0.77916099
vn -0.39271718 0.48855027 -0.77916099
vn -0.84034406 0.46586348 -0.27711563
vn -0.39271718 -0.48855027 -0.77916099
vn -0.84034406 -0.46586348 -0.27711563
g cube1_cube1_auv
usemtl cube1_auv
f 37/142/37 40/180/40 47/182/47 46/145/46
f 38/144/38 45/143/45 48/183/48 39/184/39
f 38/78/38 53/84/53 56/83/56 42/77/42
f 39/116/39 54/114/54 53/84/53 38/78/38
f 42/126/42 49/127/49 45/143/45 38/144/38
f 42/77/42 56/83/56 55/113/55 43/115/43
f 43/95/43 51/96/51 49/127/49 42/126/42
f 43/115/43 55/113/55 54/114/54 39/116/39
f 44/98/44 52/97/52 47/75/47 40/76/40
f 45/143/45 49/127/49 50/125/50 46/145/46
f 46/145/46 47/182/47 48/183/48 45/143/45
f 46/145/46 50/125/50 41/124/41 37/142/37
f 47/75/47 52/97/52 51/96/51 48/74/48
f 48/74/48 51/96/51 43/95/43 39/73/39
f 49/127/49 51/96/51 52/97/52 50/125/50
f 50/125/50 52/97/52 44/98/44 41/124/41
f 53/84/53 57/88/57 60/86/60 56/83/56
f 54/114/54 58/112/58 57/88/57 53/84/53
f 55/113/55 59/111/59 58/112/58 54/114/54
f 56/83/56 60/86/60 59/111/59 55/113/55
f 58/112/58 59/111/59 60/86/60 57/88/57
f 61/179/61 68/178/68 67/176/67 66/173/66 65/170/65 64/171/64 63/174/63 62/177/62
f 61/160/61 69/158/69 76/161/76 68/162/68
f 62/159/62 70/157/70 69/158/69 61/160/61
f 63/174/63 71/175/71 70/181/70 62/177/62
f 64/169/64 72/172/72 71/175/71 63/174/63
f 65/168/65 73/167/73 72/172/72 64/169/64
f 66/166/66 74/165/74 73/167/73 65/168/65
f 67/164/67 75/163/75 74/165/74 66/166/66
f 68/162/68 76/161/76 75/163/75 67/164/67
f 77/136/77 85/135/85 86/140/86 78/137/78
f 78/139/78 79/146/79 80/149/80 81/153/81 82/150/82 83/148/83 84/141/84 77/138/77
f 78/137/78 86/140/86 87/147/87 79/146/79
f 79/146/79 87/147/87 88/154/88 80/149/80
f 80/123/80 88/119/88 89/122/89 81/128/81
f 81/128/81 89/122/89 90/129/90 82/130/82
f 82/130/82 90/129/90 91/131/91 83/132/83
f 83/132/83 91/131/91 92/133/92 84/134/84
f 84/134/84 92/133/92 85/135/85 77/136/77
f 93/151/93 94/155/94 101/156/101 102/152/102 107/121/107 108/118/108 100/117/100 99/120/99
f 93/87/93 95/93/95 96/90/96 94/82/94
f 94/80/94 96/90/96 103/89/103 101/79/101
f 97/101/97 98/104/98 106/103/106 105/100/105 104/92/104 103/89/103 96/90/96 95/93/95
f 98/104/98 100/110/100 108/109/108 106/103/106
f 99/102/99 97/101/97 95/93/95 93/94/93
f 100/108/100 98/104/98 97/101/97 99/106/99
f 102/91/102 104/92/104 105/100/105 107/99/107
f 104/92/104 102/85/102 101/81/101 103/89/103
f 106/103/106 108/107/108 107/105/107 105/100/105
f 109/142/109 113/124/113 122/125/122 118/145/118
f 110/144/110 117/143/117 121/127/121 114/126/114
f 110/78/110 125/84/125 126/114/126 111/116/111
f 111/73/111 115/95/115 123/96/123 120/74/120
f 111/184/111 120/183/120 117/143/117 110/144/110
f 111/116/111 126/114/126 127/113/127 115/115/115
f 112/76/112 119/75/119 124/97/124 116/98/116
f 113/124/113 116/98/116 124/97/124 122/125/122
f 114/126/114 121/127/121 123/96/123 115/95/115
f 114/77/114 128/83/128 125/84/125 110/78/110
f 115/115/115 127/113/127 128/83/128 114/77/114
f 117/143/117 120/183/120 119/182/119 118/145/118
f 118/145/118 119/182/119 112/180/112 109/142/109
f 118/145/118 122/125/122 121/127/121 117/143/117
f 120/74/120 123/96/123 124/97/124 119/75/119
f 122/125/122 124/97/124 123/96/123 121/127/121
f 125/84/125 129/88/129 130/112/130 126/114/126
f 126/114/126 130/112/130 131/111/131 127/113/127
f 127/113/127 131/111/131 132/86/132 128/83/128
f 128/83/128 132/86/132 129/88/129 125/84/125
f 129/88/129 132/86/132 131/111/131 130/112/130
f 133/160/133 141/158/141 142/157/142 134/159/134
f 134/177/134 135/174/135 136/171/136 137/170/137 138/173/138 139/176/139 140/178/140 133/179/133
f 134/177/134 142/181/142 143/175/143 135/174/135
f 135/174/135 143/175/143 144/172/144 136/169/136
f 136/169/136 144/172/144 145/167/145 137/168/137
f 137/168/137 145/167/145 146/165/146 138/166/138
f 138/166/138 146/165/146 147/163/147 139/164/139
f 139/164/139 147/163/147 148/161/148 140/162/140
f 140/162/140 148/161/148 141/158/141 133/160/133
f 149/138/149 156/141/156 155/148/155 154/150/154 153/153/153 152/149/152 151/146/151 150/139/150
f 149/136/149 157/135/157 164/133/164 156/134/156
f 150/137/150 158/140/158 157/135/157 149/136/149
f 151/146/151 159/147/159 158/140/158 150/137/150
f 152/149/152 160/154/160 159/147/159 151/146/151
f 153/128/153 161/122/161 160/119/160 152/123/152
f 154/130/154 162/129/162 161/122/161 153/128/153
f 155/132/155 163/131/163 162/129/162 154/130/154
f 156/134/156 164/133/164 163/131/163 155/132/155
f 165/94/165 167/93/167 169/101/169 171/102/171
f 166/82/166 168/90/168 167/93/167 165/87/165
f 167/93/167 168/90/168 175/89/175 176/92/176 177/100/177 178/103/178 170/104/170 169/101/169
f 171/106/171 169/101/169 170/104/170 172/108/172
f 171/120/171 172/117/172 180/118/180 179/121/179 174/152/174 173/156/173 166/155/166 165/151/165
f 173/79/173 175/89/175 168/90/168 166/80/166
f 175/89/175 173/81/173 174/85/174 176/92/176
f 177/100/177 179/105/179 180/107/180 178/103/178
f 178/103/178 180/109/180 172/110/172 170/104/170
f 179/99/179 177/100/177 176/92/176 174/91/174
