# Exported from Wings 3D 0.99.02
mtllib lockerkast.mtl
o cube1_sep12
#60 vertices, 46 faces
v -1.00000000 0.0000000e+0 1.20000000
v -1.00000000 6.77315072 1.20000000
v 1.00000000 6.77315072 1.20000000
v 1.00000000 0.0000000e+0 1.20000000
v -1.00000000 0.0000000e+0 -1.20000000
v -1.00000000 6.77315072 -1.20000000
v 1.00000000 6.77315072 -1.20000000
v 1.00000000 0.0000000e+0 -1.20000000
v -0.82400000 0.17600000 -1.20000000
v -0.82400000 6.59715072 -1.20000000
v 0.82400000 6.59715072 -1.20000000
v 0.82400000 0.17600000 -1.20000000
v -0.82400000 0.17600000 -1.12568218
v -0.82400000 6.59715072 -1.12568218
v 0.82400000 6.59715072 -1.12568218
v 0.82400000 0.17600000 -1.12568218
v -0.72841600 0.27158400 -1.12568218
v -0.72841600 6.50156672 -1.12568218
v 0.72841600 6.50156672 -1.12568218
v 0.72841600 0.27158400 -1.12568218
v -0.72841600 0.27158400 1.12257214
v -0.72841600 6.50156672 1.12257214
v 0.72841600 6.50156672 1.12257214
v 0.72841600 0.27158400 1.12257214
v -0.72841600 5.32909535 -1.12568218
v -0.72841600 5.18204501 -1.12568218
v -0.72841600 4.08309880 -1.12568218
v -0.72841600 3.93604846 -1.12568218
v -0.72841600 2.02355986 -1.12568218
v -0.72841600 1.87650952 -1.12568218
v 0.72841600 1.87650952 -1.12568218
v 0.72841600 2.02355986 -1.12568218
v 0.72841600 3.93604846 -1.12568218
v 0.72841600 4.08309880 -1.12568218
v 0.72841600 5.18204501 -1.12568218
v 0.72841600 5.32909535 -1.12568218
v -0.72841600 5.32909535 1.12257214
v -0.72841600 5.18204501 1.12257214
v -0.72841600 4.08309880 1.12257214
v -0.72841600 3.93604846 1.12257214
v -0.72841600 2.02355986 1.12257214
v -0.72841600 1.87650952 1.12257214
v 0.72841600 1.87650952 1.12257214
v 0.72841600 2.02355986 1.12257214
v 0.72841600 3.93604846 1.12257214
v 0.72841600 4.08309880 1.12257214
v 0.72841600 5.18204501 1.12257214
v 0.72841600 5.32909535 1.12257214
v 0.72841600 1.87650952 0.84937629
v 0.72841600 3.93604846 0.84937629
v 0.72841600 4.08309880 0.84937629
v -0.72841600 4.08309880 0.84937629
v 0.72841600 2.02355986 0.84937629
v -0.72841600 5.18204501 0.84937629
v -0.72841600 5.32909535 0.84937629
v -0.72841600 3.93604846 0.84937629
v 0.72841600 5.18204501 0.84937629
v -0.72841600 2.02355986 0.84937629
v 0.72841600 5.32909535 0.84937629
v -0.72841600 1.87650952 0.84937629
vt 9.8917285e-3 0.94833154
vt 9.8917285e-3 0.78107353
vt 0.14927340 0.78107353
vt 0.14927340 0.94833154
vt 0.15527155 0.78323228
vt 0.15527155 0.95049029
vt 0.29465322 0.78323228
vt 0.29465322 0.95049029
vt 0.30456152 0.80252165
vt 0.30456152 0.92326154
vt 0.39362103 0.80252165
vt 0.39362103 0.92326154
vt 0.41727553 0.48093794
vt 0.41727553 8.9114142e-3
vt 0.41830656 0.91678720
vt 0.41830656 0.92577672
vt 0.41830656 0.93476625
vt 0.41830656 0.90779767
vt 0.41830656 0.91678720
vt 0.41830656 0.92577672
vt 0.41830656 0.49373931
vt 0.42906585 0.50449860
vt 0.42906585 0.89703838
vt 0.43656389 0.61775828
vt 0.43656389 0.60876876
vt 0.43656389 0.73467313
vt 0.43656389 0.74366266
vt 0.43656389 0.81084378
vt 0.43656389 0.81983331
vt 0.43656389 0.89150919
vt 0.43656389 0.51065595
vt 0.50736607 0.92577672
vt 0.50736607 0.93476625
vt 0.50736607 0.90779767
vt 0.50736607 0.91678720
vt 0.50736607 0.92577672
vt 0.52562339 0.51065595
vt 0.52562339 0.89150919
vt 0.52562339 0.61775828
vt 0.52562339 0.60876876
vt 0.52562339 0.73467313
vt 0.52562339 0.74366266
vt 0.52562339 0.81983331
vt 0.52562339 0.81084378
vt 0.52981190 0.50449860
vt 0.52981190 0.89703838
vt 0.54057118 0.49373931
vt 0.54057118 0.90779767
vt 0.54525352 0.49254365
vt 0.54525352 0.49708687
vt 0.54948608 0.50439910
vt 0.54948608 0.89693888
vt 0.55402930 0.50439910
vt 0.55402930 0.89693888
vt 0.55402930 0.89693888
vt 0.55665720 8.9114142e-3
vt 0.55665720 0.48093794
vt 0.55857252 0.50439910
vt 0.55857252 0.89693888
vt 0.56687065 0.74398142
vt 0.56687065 0.85482064
vt 0.56765805 8.9250831e-3
vt 0.56765805 0.48095161
vt 0.56779941 0.62399706
vt 0.56779941 0.73483628
vt 0.56836012 0.50603698
vt 0.56836012 0.61687620
vt 0.58691396 0.93918990
vt 0.58691396 0.97646041
vt 0.60697517 0.93918990
vt 0.60697517 0.97646041
vt 0.61567618 0.93902708
vt 0.61567618 0.97629759
vt 0.63573740 0.93902708
vt 0.63573740 0.97629759
vt 0.63857711 0.93902708
vt 0.63857711 0.97629759
vt 0.64599957 0.49254365
vt 0.64599957 0.49708687
vt 0.64862727 0.74398142
vt 0.64862727 0.85482064
vt 0.64955603 0.62399706
vt 0.64955603 0.73483628
vt 0.65011674 0.50603698
vt 0.65011674 0.61687620
vt 0.65339150 0.78950351
vt 0.65339150 0.91024340
vt 0.65635317 0.50260840
vt 0.65635317 0.64004938
vt 0.65671259 0.64614797
vt 0.65671259 0.78358895
vt 0.65863833 0.93902708
vt 0.65863833 0.97629759
vt 0.66147805 0.93902708
vt 0.66147805 0.97629759
vt 0.68153926 0.93902708
vt 0.68153926 0.97629759
vt 0.68437898 0.93902708
vt 0.68437898 0.97629759
vt 0.70444020 0.93902708
vt 0.70444020 0.97629759
vt 0.70727991 0.93902708
vt 0.70727991 0.97629759
vt 0.72734113 0.93902708
vt 0.72734113 0.97629759
vt 0.73491605 8.9250831e-3
vt 0.73491605 0.48095161
vt 0.74245101 0.78950351
vt 0.74245101 0.91024340
vt 0.74541268 0.50260840
vt 0.74541268 0.64004938
vt 0.74577209 0.64614797
vt 0.74577209 0.78358895
vt 0.74621193 1.0029234e-2
vt 0.74621193 0.48205576
vt 0.74674562 0.49254365
vt 0.74674562 0.49708687
vt 0.76467386 0.98766985
vt 0.76467386 0.49461385
vt 0.77201339 0.87900921
vt 0.77201339 0.89030065
vt 0.77201339 0.98033032
vt 0.77201339 0.50195339
vt 0.77201339 0.62518958
vt 0.77201339 0.63648102
vt 0.77201339 0.78333383
vt 0.77201339 0.79462527
vt 0.77820639 0.66795569
vt 0.77820639 0.75183854
vt 0.78322299 0.89377634
vt 0.78322299 0.97300019
vt 0.79018892 0.66795569
vt 0.79018892 0.75183854
vt 0.86503877 0.89377634
vt 0.86503877 0.97300019
vt 0.87635576 0.89377634
vt 0.87635576 0.97300019
vt 0.87681612 0.66795569
vt 0.87681612 0.75183854
vt 0.88387804 0.50195339
vt 0.88387804 0.62518958
vt 0.88387804 0.63648102
vt 0.88387804 0.78333383
vt 0.88387804 0.79462527
vt 0.88387804 0.87900921
vt 0.88387804 0.89030065
vt 0.88387804 0.98033032
vt 0.89121758 0.98766985
vt 0.89121758 0.49461385
vt 0.90070774 0.58682406
vt 0.90070774 0.70756395
vt 0.90312369 0.85565282
vt 0.90312369 0.86975806
vt 0.90312369 0.97173135
vt 0.90503160 0.71924327
vt 0.90503160 0.82121655
vt 0.90503160 0.83532180
vt 0.91346994 1.0029234e-2
vt 0.91346994 0.48205576
vt 0.92006729 9.6194411e-3
vt 0.92006729 0.14459447
vt 0.92028278 0.44391878
vt 0.92028278 0.56249236
vt 0.92028278 0.57889381
vt 0.92032589 0.30006785
vt 0.92032589 0.43504288
vt 0.92125307 0.15466738
vt 0.92125307 0.17106883
vt 0.92125307 0.28964242
vt 0.98598683 0.85565282
vt 0.98598683 0.97173135
vt 0.98625855 0.44391878
vt 0.98625855 0.56249236
vt 0.98625855 0.57889381
vt 0.98722884 0.15466738
vt 0.98722884 0.17106883
vt 0.98722884 0.28964242
vt 0.98789473 0.71924327
vt 0.98789473 0.83532180
vt 0.98976725 0.58682406
vt 0.98976725 0.70756395
vt 0.99045718 9.6194411e-3
vt 0.99045718 2.6020886e-2
vt 0.99045718 0.14459447
vt 0.99071577 0.30006785
vt 0.99071577 0.41864144
vt 0.99071577 0.43504288
vn -0.57735027 -0.57735027 0.57735027
vn -0.57735027 0.57735027 0.57735027
vn 0.57735027 0.57735027 0.57735027
vn 0.57735027 -0.57735027 0.57735027
vn -0.40824829 -0.40824829 -0.81649658
vn -0.40824829 0.40824829 -0.81649658
vn 0.40824829 0.40824829 -0.81649658
vn 0.40824829 -0.40824829 -0.81649658
vn 0.40824829 0.40824829 -0.81649658
vn 0.40824829 -0.40824829 -0.81649658
vn -0.40824829 -0.40824829 -0.81649658
vn -0.40824829 0.40824829 -0.81649658
vn 0.40824829 0.40824829 -0.81649658
vn 0.40824829 -0.40824829 -0.81649658
vn -0.40824829 -0.40824829 -0.81649658
vn -0.40824829 0.40824829 -0.81649658
vn 0.40824829 0.40824829 -0.81649658
vn 0.40824829 -0.40824829 -0.81649658
vn -0.40824829 -0.40824829 -0.81649658
vn -0.40824829 0.40824829 -0.81649658
vn 0.57735027 0.57735027 -0.57735027
vn 0.57735027 -0.57735027 -0.57735027
vn -0.57735027 -0.57735027 -0.57735027
vn -0.57735027 0.57735027 -0.57735027
vn 0.40824829 0.40824829 -0.81649658
vn 0.40824829 -0.40824829 -0.81649658
vn 0.40824829 0.40824829 -0.81649658
vn 0.40824829 -0.40824829 -0.81649658
vn 0.40824829 0.40824829 -0.81649658
vn 0.40824829 -0.40824829 -0.81649658
vn -0.40824829 -0.40824829 -0.81649658
vn -0.40824829 0.40824829 -0.81649658
vn -0.40824829 -0.40824829 -0.81649658
vn -0.40824829 0.40824829 -0.81649658
vn -0.40824829 -0.40824829 -0.81649658
vn -0.40824829 0.40824829 -0.81649658
vn 0.89442719 0.0000000e+0 -0.44721360
vn 0.89442719 0.0000000e+0 -0.44721360
vn 0.89442719 0.0000000e+0 -0.44721360
vn 0.89442719 0.0000000e+0 -0.44721360
vn 0.89442719 0.0000000e+0 -0.44721360
vn 0.89442719 0.0000000e+0 -0.44721360
vn -0.89442719 0.0000000e+0 -0.44721360
vn -0.89442719 0.0000000e+0 -0.44721360
vn -0.89442719 0.0000000e+0 -0.44721360
vn -0.89442719 0.0000000e+0 -0.44721360
vn -0.89442719 0.0000000e+0 -0.44721360
vn -0.89442719 0.0000000e+0 -0.44721360
vn -0.81649658 -0.40824829 0.40824829
vn -0.81649658 -0.40824829 0.40824829
vn -0.81649658 0.40824829 0.40824829
vn 0.81649658 0.40824829 0.40824829
vn -0.81649658 0.40824829 0.40824829
vn 0.81649658 -0.40824829 0.40824829
vn 0.81649658 0.40824829 0.40824829
vn 0.81649658 -0.40824829 0.40824829
vn -0.81649658 -0.40824829 0.40824829
vn 0.81649658 0.40824829 0.40824829
vn -0.81649658 0.40824829 0.40824829
vn 0.81649658 -0.40824829 0.40824829
g cube1_sep12_cube1_auv
usemtl cube1_auv
f 1/14/1 4/56/4 3/57/3 2/13/2
f 1/7/1 5/8/5 8/6/8 4/5/4
f 2/159/2 6/115/6 5/114/5 1/158/1
f 3/3/3 7/4/7 6/1/6 2/2/2
f 4/62/4 8/106/8 7/107/7 3/63/3
f 5/47/5 9/45/9 12/22/12 8/21/8
f 6/48/6 10/46/10 9/45/9 5/47/5
f 7/18/7 11/23/11 10/46/10 6/48/6
f 8/21/8 12/22/12 11/23/11 7/18/7
f 9/50/9 13/49/13 16/78/16 12/79/12
f 10/54/10 14/52/14 13/51/13 9/53/9
f 11/79/11 15/78/15 14/116/14 10/117/10
f 12/53/12 16/58/16 15/59/15 11/55/11
f 13/149/13 17/140/17 20/123/20 16/119/16
f 14/148/14 18/147/18 25/146/25 26/145/26 27/144/27 28/143/28 29/142/29 30/141/30 17/140/17 13/149/13
f 15/118/15 19/122/19 18/147/18 14/148/14
f 16/119/16 20/123/20 31/124/31 32/125/32 33/126/33 34/127/34 35/120/35 36/121/36 19/122/19 15/118/15
f 17/91/17 21/90/21 24/112/24 20/113/20
f 17/171/17 30/154/30 60/153/60 42/152/42 21/170/21
f 18/161/18 22/160/22 37/182/37 55/183/55 25/184/25
f 19/89/19 23/88/23 22/110/22 18/111/18
f 19/165/19 36/185/36 59/186/59 48/187/48 23/166/23
f 22/38/22 23/30/23 48/29/48 47/28/47 46/27/46 45/26/45 44/24/44 43/25/43 24/31/24 21/37/21 42/40/42 41/39/41 40/41/40 39/42/39 38/44/38 37/43/37
f 24/179/24 43/157/43 49/156/49 31/155/31 20/178/20
f 25/146/25 36/121/36 35/120/35 26/145/26
f 26/169/26 54/168/54 38/167/38 39/175/39 52/176/52 27/177/27
f 27/144/27 34/127/34 33/126/33 28/143/28
f 28/139/28 56/133/56 40/129/40 41/128/41 58/132/58 29/138/29
f 31/124/31 30/141/30 29/142/29 32/125/32
f 32/130/32 53/134/53 44/136/44 45/137/45 50/135/50 33/131/33
f 34/172/34 51/173/51 46/174/46 47/164/47 57/163/57 35/162/35
f 40/92/40 56/93/56 52/77/52 39/76/39
f 42/100/42 60/101/60 58/99/58 41/98/41
f 48/69/48 59/68/59 57/70/57 47/71/47
f 49/150/49 60/180/60 30/181/30 31/151/31
f 50/60/50 56/80/56 28/81/28 33/61/33
f 51/94/51 50/96/50 45/97/45 46/95/46
f 51/33/51 52/17/52 56/16/56 50/32/50
f 52/86/52 51/108/51 34/109/34 27/87/27
f 53/102/53 49/104/49 43/105/43 44/103/44
f 53/36/53 58/20/58 60/15/60 49/35/49
f 54/75/54 55/73/55 37/72/37 38/74/38
f 54/18/54 57/34/57 59/35/59 55/19/55
f 55/64/55 59/82/59 36/83/36 25/65/25
f 57/9/57 54/11/54 26/12/26 35/10/35
f 58/66/58 53/84/53 32/85/32 29/67/29
o cube1
#64 vertices, 44 faces
v -0.72421187 1.32005226 -1.23280069
v -0.74557199 1.32005226 -1.18123281
v -0.79713987 1.32005226 -1.15987269
v -0.84870776 1.32005226 -1.18123281
v -0.87006787 1.32005226 -1.23280069
v -0.84870776 1.32005226 -1.28436857
v -0.79713987 1.32005226 -1.30572869
v -0.74557199 1.32005226 -1.28436857
v -0.72421187 0.76621226 -1.23280069
v -0.74557199 0.76621226 -1.18123281
v -0.79713987 0.76621226 -1.15987269
v -0.84870776 0.76621226 -1.18123281
v -0.87006787 0.76621226 -1.23280069
v -0.84870776 0.76621226 -1.28436857
v -0.79713987 0.76621226 -1.30572869
v -0.74557199 0.76621226 -1.28436857
v -0.72421187 6.00013519 -1.23280069
v -0.74557199 6.00013519 -1.18123281
v -0.79713987 6.00013519 -1.15987269
v -0.84870776 6.00013519 -1.18123281
v -0.87006787 6.00013519 -1.23280069
v -0.84870776 6.00013519 -1.28436857
v -0.79713987 6.00013519 -1.30572869
v -0.74557199 6.00013519 -1.28436857
v -0.72421187 5.44629519 -1.23280069
v -0.74557199 5.44629519 -1.18123281
v -0.79713987 5.44629519 -1.15987269
v -0.84870776 5.44629519 -1.18123281
v -0.87006787 5.44629519 -1.23280069
v -0.84870776 5.44629519 -1.28436857
v -0.79713987 5.44629519 -1.30572869
v -0.74557199 5.44629519 -1.28436857
v -0.79600000 0.18581396 -1.14492222
v -0.79600000 6.57009503 -1.14492222
v 0.79600000 6.57009503 -1.14492222
v 0.79600000 0.18581396 -1.14492222
v -0.79600000 0.18581396 -1.18404384
v -0.79600000 6.57009503 -1.18404384
v 0.79600000 6.57009503 -1.18404384
v 0.79600000 0.18581396 -1.18404384
v 0.73035053 3.34333139 -1.15879311
v 0.69227441 3.25140751 -1.15879311
v 0.60035053 3.21333139 -1.15879311
v 0.50842665 3.25140751 -1.15879311
v 0.47035053 3.34333139 -1.15879311
v 0.50842665 3.43525527 -1.15879311
v 0.60035053 3.47333139 -1.15879311
v 0.69227441 3.43525527 -1.15879311
v 0.73035053 3.34333139 -1.38360015
v 0.69227441 3.25140751 -1.38360015
v 0.60035053 3.21333139 -1.38360015
v 0.50842665 3.25140751 -1.38360015
v 0.47035053 3.34333139 -1.38360015
v 0.50842665 3.43525527 -1.38360015
v 0.60035053 3.47333139 -1.38360015
v 0.69227441 3.43525527 -1.38360015
v 0.69225794 3.34333139 -1.41879311
v 0.66533888 3.27834303 -1.41879311
v 0.60035053 3.25142397 -1.41879311
v 0.53536217 3.27834303 -1.41879311
v 0.50844312 3.34333139 -1.41879311
v 0.53536217 3.40831974 -1.41879311
v 0.60035053 3.43523880 -1.41879311
v 0.66533888 3.40831974 -1.41879311
vt 9.4496163e-3 6.4776284e-3
vt 9.4496163e-3 0.76690649
vt 0.19907202 6.4776284e-3
vt 0.19907202 0.76690649
vt 0.20675200 0.77331345
vt 0.20728288 1.2884769e-2
vt 0.21140851 0.77797646
vt 0.21141176 0.77331670
vt 0.21194264 1.2888022e-2
vt 0.21194589 8.2282648e-3
vt 0.40103087 0.77810884
vt 0.40103412 0.77344908
vt 0.40156500 1.3020404e-2
vt 0.40156825 8.3606462e-3
vt 0.40569388 0.77345234
vt 0.40622476 1.3023657e-2
vt 0.41830656 0.93922451
vt 0.41961235 0.93607204
vt 0.41961235 0.94237697
vt 0.42276482 0.93476625
vt 0.42276482 0.94368276
vt 0.42591728 0.93607204
vt 0.42591728 0.94237697
vt 0.42722307 0.93922451
vt 0.50736607 0.90779767
vt 0.50736607 0.94611344
vt 0.50736607 0.94165519
vt 0.50867186 0.94296098
vt 0.50867186 0.94926591
vt 0.51077827 0.90779767
vt 0.51077827 0.94165519
vt 0.51182432 0.94165519
vt 0.51182432 0.95057170
vt 0.51419047 0.90779767
vt 0.51419047 0.90779767
vt 0.51419047 0.94165519
vt 0.51419047 0.94165519
vt 0.51497679 0.94296098
vt 0.51497679 0.94926591
vt 0.51628258 0.94611344
vt 0.51758838 0.94296098
vt 0.51758838 0.94926591
vt 0.51760267 0.90779767
vt 0.51760267 0.94165519
vt 0.52074084 0.94165519
vt 0.52074084 0.95057170
vt 0.52101488 0.90779767
vt 0.52101488 0.90779767
vt 0.52101488 0.94165519
vt 0.52101488 0.94165519
vt 0.52389330 0.94296098
vt 0.52389330 0.94926591
vt 0.52442708 0.90779767
vt 0.52442708 0.94165519
vt 0.52519910 0.94611344
vt 0.52650489 0.94296098
vt 0.52650489 0.94926591
vt 0.52783928 0.90779767
vt 0.52783928 0.90779767
vt 0.52783928 0.94165519
vt 0.52965735 0.94165519
vt 0.52965735 0.95057170
vt 0.53125148 0.90779767
vt 0.53125148 0.94165519
vt 0.53280982 0.94296098
vt 0.53280982 0.94926591
vt 0.53411561 0.94611344
vt 0.53466369 0.94165519
vt 0.53466369 0.90779767
vt 0.54057118 0.94165519
vt 0.54057118 0.90779767
vt 0.54398339 0.90779767
vt 0.54398339 0.94165519
vt 0.54739559 0.90779767
vt 0.54739559 0.94165519
vt 0.55080779 0.90779767
vt 0.55080779 0.94165519
vt 0.55421999 0.90779767
vt 0.55421999 0.90779767
vt 0.55421999 0.94165519
vt 0.55421999 0.94165519
vt 0.55763219 0.90779767
vt 0.55763219 0.94165519
vt 0.56104440 0.90779767
vt 0.56104440 0.90779767
vt 0.56104440 0.94165519
vt 0.56104440 0.94165519
vt 0.56445660 0.90779767
vt 0.56445660 0.94165519
vt 0.56786880 0.90779767
vt 0.56786880 0.94165519
vt 0.78963613 0.61106746
vt 0.78970586 0.59931767
vt 0.78977558 0.58756788
vt 0.78984531 0.57581808
vt 0.78991503 0.56406829
vt 0.78998476 0.55231850
vt 0.79005448 0.54056870
vt 0.79012421 0.52881891
vt 0.79019393 0.51706912
vt 0.81618384 0.61122500
vt 0.81625357 0.59947521
vt 0.81632329 0.58772542
vt 0.81639302 0.57597562
vt 0.81646275 0.56422583
vt 0.81653247 0.55247604
vt 0.81660220 0.54072624
vt 0.81667192 0.52897645
vt 0.81674165 0.51722666
vt 0.83660000 0.53390400
vt 0.83918186 0.58675386
vt 0.84157918 0.52188318
vt 0.84157918 0.54592482
vt 0.84386450 0.59884430
vt 0.84428973 0.57495695
vt 0.84546392 0.58685695
vt 0.84843225 0.59438126
vt 0.84866403 0.57943387
vt 0.85360000 0.51690400
vt 0.85360000 0.55090400
vt 0.85584312 0.60380601
vt 0.85588571 0.59752325
vt 0.85615931 0.57640673
vt 0.85620191 0.57012397
vt 0.86338100 0.59449611
vt 0.86361277 0.57954872
vt 0.86562082 0.52188318
vt 0.86562082 0.54592482
vt 0.86658110 0.58707303
vt 0.86775529 0.59897303
vt 0.86818053 0.57508568
vt 0.87060000 0.53390400
vt 0.87286316 0.58717611
vn 0.87946522 0.47596315 -1.1361143e-15
vn 0.62187582 0.47596315 0.62187582
vn 2.9063389e-16 0.47596315 0.87946522
vn -0.62187582 0.47596315 0.62187582
vn -0.87946522 0.47596315 -1.1361143e-15
vn -0.62187582 0.47596315 -0.62187582
vn 2.9063389e-16 0.47596315 -0.87946522
vn 0.62187582 0.47596315 -0.62187582
vn 0.87946522 -0.47596315 -1.3474844e-15
vn 0.62187582 -0.47596315 0.62187582
vn 2.9063389e-16 -0.47596315 0.87946522
vn -0.62187582 -0.47596315 0.62187582
vn -0.87946522 -0.47596315 -1.3474844e-15
vn -0.62187582 -0.47596315 -0.62187582
vn 2.9063389e-16 -0.47596315 -0.87946522
vn 0.62187582 -0.47596315 -0.62187582
vn 0.87946522 0.47596315 -1.5060120e-15
vn 0.62187582 0.47596315 0.62187582
vn 2.9063389e-16 0.47596315 0.87946522
vn -0.62187582 0.47596315 0.62187582
vn -0.87946522 0.47596315 -1.5060120e-15
vn -0.62187582 0.47596315 -0.62187582
vn 2.9063389e-16 0.47596315 -0.87946522
vn 0.62187582 0.47596315 -0.62187582
vn 0.87946522 -0.47596315 -3.2498153e-15
vn 0.62187582 -0.47596315 0.62187582
vn 2.9063389e-16 -0.47596315 0.87946522
vn -0.62187582 -0.47596315 0.62187582
vn -0.87946522 -0.47596315 -3.2498153e-15
vn -0.62187582 -0.47596315 -0.62187582
vn 2.9063389e-16 -0.47596315 -0.87946522
vn 0.62187582 -0.47596315 -0.62187582
vn -0.57735027 -0.57735027 0.57735027
vn -0.57735027 0.57735027 0.57735027
vn 0.57735027 0.57735027 0.57735027
vn 0.57735027 -0.57735027 0.57735027
vn -0.57735027 -0.57735027 -0.57735027
vn -0.57735027 0.57735027 -0.57735027
vn 0.57735027 0.57735027 -0.57735027
vn 0.57735027 -0.57735027 -0.57735027
vn 0.87946522 -8.4548040e-16 0.47596315
vn 0.62187582 -0.62187582 0.47596315
vn 5.2842525e-17 -0.87946522 0.47596315
vn -0.62187582 -0.62187582 0.47596315
vn -0.87946522 -8.1905913e-16 0.47596315
vn -0.62187582 0.62187582 0.47596315
vn -2.6421262e-17 0.87946522 0.47596315
vn 0.62187582 0.62187582 0.47596315
vn 0.91248696 -8.5109245e-16 -0.40910580
vn 0.64522571 -0.64522571 -0.40910580
vn -6.4233393e-17 -0.91248696 -0.40910580
vn -0.64522571 -0.64522571 -0.40910580
vn -0.91248696 -4.8175045e-16 -0.40910580
vn -0.64522571 0.64522571 -0.40910580
vn 1.4452513e-16 0.91248696 -0.40910580
vn 0.64522571 0.64522571 -0.40910580
vn 0.47596315 -4.2466113e-16 -0.87946522
vn 0.33655677 -0.33655677 -0.87946522
vn -1.2133175e-16 -0.47596315 -0.87946522
vn -0.33655677 -0.33655677 -0.87946522
vn -0.47596315 2.0221959e-17 -0.87946522
vn -0.33655677 0.33655677 -0.87946522
vn 2.0221959e-16 0.47596315 -0.87946522
vn 0.33655677 0.33655677 -0.87946522
g cube1_cube1_auv
usemtl cube1_auv
f 61/254/61 68/253/68 67/249/67 66/244/66 65/242/65 64/243/64 63/248/63 62/252/62
f 61/231/61 69/230/69 76/234/76 68/236/68
f 62/224/62 70/222/70 69/230/69 61/231/61
f 63/260/63 71/259/71 70/261/70 62/262/62
f 64/257/64 72/258/72 71/259/71 63/260/63
f 65/241/65 73/240/73 72/245/72 64/247/64
f 66/237/66 74/235/74 73/240/73 65/241/65
f 67/264/67 75/263/75 74/265/74 66/267/66
f 68/262/68 76/261/76 75/263/75 67/264/67
f 70/228/70 71/232/71 72/238/72 73/242/73 74/239/74 75/233/75 76/229/76 69/227/69
f 77/211/77 84/210/84 83/208/83 82/206/82 81/204/81 80/205/80 79/207/79 78/209/78
f 77/218/77 85/217/85 92/221/92 84/223/84
f 78/214/78 86/212/86 85/217/85 77/218/77
f 79/251/79 87/250/87 86/256/86 78/255/78
f 80/247/80 88/246/88 87/250/87 79/251/79
f 81/270/81 89/269/89 88/271/88 80/273/80
f 82/268/82 90/266/90 89/269/89 81/270/81
f 83/276/83 91/275/91 90/277/90 82/278/82
f 84/274/84 92/272/92 91/275/91 83/276/83
f 86/215/86 87/219/87 88/225/88 89/227/89 90/226/90 91/220/91 92/216/92 85/213/85
f 93/188/93 96/190/96 95/191/95 94/189/94
f 93/201/93 97/200/97 100/196/100 96/197/96
f 94/202/94 98/199/98 97/200/97 93/203/93
f 95/194/95 99/195/99 98/199/98 94/198/94
f 96/193/96 100/196/100 99/195/99 95/192/95
f 98/199/98 99/195/99 100/196/100 97/200/97
f 101/319/101 108/315/108 107/307/107 106/300/106 105/297/105 104/299/104 103/306/103 102/314/102
f 101/285/101 109/294/109 116/293/116 108/284/108
f 102/286/102 110/295/110 109/294/109 101/285/101
f 103/287/103 111/296/111 110/295/110 102/286/102
f 104/280/104 112/289/112 111/288/111 103/279/103
f 105/281/105 113/290/113 112/289/112 104/280/104
f 106/282/106 114/291/114 113/290/113 105/281/105
f 107/283/107 115/292/115 114/291/114 106/282/106
f 108/284/108 116/293/116 115/292/115 107/283/107
f 109/298/109 117/303/117 124/304/124 116/301/116
f 110/302/110 118/305/118 117/303/117 109/298/109
f 111/311/111 119/310/119 118/305/118 110/302/110
f 112/318/112 120/313/120 119/310/119 111/311/111
f 113/320/113 121/316/121 120/313/120 112/318/112
f 114/317/114 122/312/122 121/316/121 113/320/113
f 115/308/115 123/309/123 122/312/122 114/317/114
f 116/301/116 124/304/124 123/309/123 115/308/115
f 118/305/118 119/310/119 120/313/120 121/316/121 122/312/122 123/309/123 124/304/124 117/303/117
